<svg viewBox="0 0 512 512" xmlns="http://www.w3.org/2000/svg">
<style>
rect.node {
	fill: #000F;
}

.edge > path {
	fill: #0004;
}

text.node, .edge > text {
	fill: #000;
	text-anchor: middle;
	dominant-baseline: central;
	font-family: sans-serif;
	font-size: 10.24px;
}

.edge:not(:hover) > text {
	display: none;
}
</style>
<rect class="node" height="198.77647058823533" width="5.12" x="51.2" y="51.19999999999996"/>
<rect class="node" height="120.47058823529413" width="5.12" x="51.2" y="267.0431372549019"/>
<rect class="node" height="39.15294117647059" width="5.12" x="51.2" y="404.58039215686273"/>
<rect class="node" height="0" width="5.12" x="51.2" y="460.79999999999995"/>
<rect class="node" height="63.24705882352942" width="5.12" x="186.0266666666667" y="59.73333333333329"/>
<rect class="node" height="9.03529411764706" width="5.12" x="186.0266666666667" y="140.04705882352937"/>
<rect class="node" height="286.1176470588236" width="5.12" x="186.0266666666667" y="166.1490196078431"/>
<rect class="node" height="15.058823529411766" width="5.12" x="320.85333333333335" y="59.73333333333332"/>
<rect class="node" height="6.023529411764707" width="5.12" x="320.85333333333335" y="91.85882352941175"/>
<rect class="node" height="337.3176470588236" width="5.12" x="320.85333333333335" y="114.94901960784313"/>
<rect class="node" height="3.0117647058823533" width="5.12" x="455.68000000000006" y="68.26666666666665"/>
<rect class="node" height="355.3882352941177" width="5.12" x="455.68000000000006" y="88.34509803921567"/>
<g class="edge">
<path d="M56.32,51.2 C121.17333,51.2,121.17333,166.14902,186.02667,166.14902 L186.02667,169.16078 C121.17333,169.16078,121.17333,54.211765,56.32,54.211765 z"/>
<text x="121.17333333333335" y="110.1803921568627">
1
</text>
</g>
<g class="edge">
<path d="M191.14667,166.14902 C256,166.14902,256,114.94902,320.85333,114.94902 L320.85333,117.960785 C256,117.960785,256,169.16078,191.14667,169.16078 z"/>
<text x="256" y="142.0549019607843">
1
</text>
</g>
<g class="edge">
<path d="M325.97333,114.94902 C390.82666,114.94902,390.82666,88.3451,455.68,88.3451 L455.68,91.356865 C390.82666,91.356865,390.82666,117.960785,325.97333,117.960785 z"/>
<text x="390.8266666666667" y="103.15294117647058">
1
</text>
</g>
<g class="edge">
<path d="M56.32,54.211765 C121.17333,54.211765,121.17333,169.16078,186.02667,169.16078 L186.02667,172.17255 C121.17333,172.17255,121.17333,57.22353,56.32,57.22353 z"/>
<text x="121.17333333333335" y="113.19215686274504">
1
</text>
</g>
<g class="edge">
<path d="M191.14667,169.16078 C256,169.16078,256,117.960785,320.85333,117.960785 L320.85333,120.97255 C256,120.97255,256,172.17255,191.14667,172.17255 z"/>
<text x="256" y="145.06666666666663">
1
</text>
</g>
<g class="edge">
<path d="M325.97333,117.960785 C390.82666,117.960785,390.82666,91.356865,455.68,91.356865 L455.68,94.36863 C390.82666,94.36863,390.82666,120.97255,325.97333,120.97255 z"/>
<text x="390.8266666666667" y="106.16470588235293">
1
</text>
</g>
<g class="edge">
<path d="M56.32,57.22353 C121.17333,57.22353,121.17333,172.17255,186.02667,172.17255 L186.02667,175.18431 C121.17333,175.18431,121.17333,60.235294,56.32,60.235294 z"/>
<text x="121.17333333333335" y="116.2039215686274">
1
</text>
</g>
<g class="edge">
<path d="M191.14667,172.17255 C256,172.17255,256,120.97255,320.85333,120.97255 L320.85333,123.984314 C256,123.984314,256,175.18431,191.14667,175.18431 z"/>
<text x="256" y="148.07843137254898">
1
</text>
</g>
<g class="edge">
<path d="M325.97333,120.97255 C390.82666,120.97255,390.82666,94.36863,455.68,94.36863 L455.68,97.380394 C390.82666,97.380394,390.82666,123.984314,325.97333,123.984314 z"/>
<text x="390.8266666666667" y="109.17647058823529">
1
</text>
</g>
<g class="edge">
<path d="M56.32,60.235294 C121.17333,60.235294,121.17333,175.18431,186.02667,175.18431 L186.02667,178.19608 C121.17333,178.19608,121.17333,63.24706,56.32,63.24706 z"/>
<text x="121.17333333333335" y="119.21568627450975">
1
</text>
</g>
<g class="edge">
<path d="M191.14667,175.18431 C256,175.18431,256,123.984314,320.85333,123.984314 L320.85333,126.99608 C256,126.99608,256,178.19608,191.14667,178.19608 z"/>
<text x="256" y="151.09019607843135">
1
</text>
</g>
<g class="edge">
<path d="M325.97333,123.984314 C390.82666,123.984314,390.82666,97.380394,455.68,97.380394 L455.68,100.39216 C390.82666,100.39216,390.82666,126.99608,325.97333,126.99608 z"/>
<text x="390.8266666666667" y="112.18823529411765">
1
</text>
</g>
<g class="edge">
<path d="M56.32,267.04315 C121.17333,267.04315,121.17333,59.733334,186.02667,59.733334 L186.02667,62.7451 C121.17333,62.7451,121.17333,270.0549,56.32,270.0549 z"/>
<text x="121.17333333333335" y="164.89411764705878">
1
</text>
</g>
<g class="edge">
<path d="M191.14667,59.733334 C256,59.733334,256,126.99608,320.85333,126.99608 L320.85333,130.00784 C256,130.00784,256,62.7451,191.14667,62.7451 z"/>
<text x="256" y="94.8705882352941">
1
</text>
</g>
<g class="edge">
<path d="M325.97333,126.99608 C390.82666,126.99608,390.82666,100.39216,455.68,100.39216 L455.68,103.40392 C390.82666,103.40392,390.82666,130.00784,325.97333,130.00784 z"/>
<text x="390.8266666666667" y="115.2">
1
</text>
</g>
<g class="edge">
<path d="M56.32,63.24706 C121.17333,63.24706,121.17333,62.7451,186.02667,62.7451 L186.02667,65.75687 C121.17333,65.75687,121.17333,66.25883,56.32,66.25883 z"/>
<text x="121.17333333333335" y="64.5019607843137">
1
</text>
</g>
<g class="edge">
<path d="M191.14667,62.7451 C256,62.7451,256,130.00784,320.85333,130.00784 L320.85333,133.0196 C256,133.0196,256,65.75687,191.14667,65.75687 z"/>
<text x="256" y="97.88235294117644">
1
</text>
</g>
<g class="edge">
<path d="M325.97333,130.00784 C390.82666,130.00784,390.82666,103.40392,455.68,103.40392 L455.68,106.41569 C390.82666,106.41569,390.82666,133.0196,325.97333,133.0196 z"/>
<text x="390.8266666666667" y="118.21176470588236">
1
</text>
</g>
<g class="edge">
<path d="M56.32,404.58038 C121.17333,404.58038,121.17333,178.19608,186.02667,178.19608 L186.02667,181.20784 C121.17333,181.20784,121.17333,407.59216,56.32,407.59216 z"/>
<text x="121.17333333333335" y="292.89411764705875">
1
</text>
</g>
<g class="edge">
<path d="M191.14667,178.19608 C256,178.19608,256,133.0196,320.85333,133.0196 L320.85333,136.03137 C256,136.03137,256,181.20784,191.14667,181.20784 z"/>
<text x="256" y="157.11372549019603">
1
</text>
</g>
<g class="edge">
<path d="M325.97333,133.0196 C390.82666,133.0196,390.82666,106.41569,455.68,106.41569 L455.68,109.42745 C390.82666,109.42745,390.82666,136.03137,325.97333,136.03137 z"/>
<text x="390.8266666666667" y="121.2235294117647">
1
</text>
</g>
<g class="edge">
<path d="M56.32,66.25883 C121.17333,66.25883,121.17333,181.20784,186.02667,181.20784 L186.02667,184.2196 C121.17333,184.2196,121.17333,69.27059,56.32,69.27059 z"/>
<text x="121.17333333333335" y="125.23921568627443">
1
</text>
</g>
<g class="edge">
<path d="M191.14667,181.20784 C256,181.20784,256,136.03137,320.85333,136.03137 L320.85333,139.04314 C256,139.04314,256,184.2196,191.14667,184.2196 z"/>
<text x="256" y="160.12549019607837">
1
</text>
</g>
<g class="edge">
<path d="M325.97333,136.03137 C390.82666,136.03137,390.82666,109.42745,455.68,109.42745 L455.68,112.43922 C390.82666,112.43922,390.82666,139.04314,325.97333,139.04314 z"/>
<text x="390.8266666666667" y="124.23529411764704">
1
</text>
</g>
<g class="edge">
<path d="M56.32,69.27059 C121.17333,69.27059,121.17333,184.2196,186.02667,184.2196 L186.02667,187.23137 C121.17333,187.23137,121.17333,72.28236,56.32,72.28236 z"/>
<text x="121.17333333333335" y="128.2509803921568">
1
</text>
</g>
<g class="edge">
<path d="M191.14667,184.2196 C256,184.2196,256,139.04314,320.85333,139.04314 L320.85333,142.0549 C256,142.0549,256,187.23137,191.14667,187.23137 z"/>
<text x="256" y="163.13725490196072">
1
</text>
</g>
<g class="edge">
<path d="M325.97333,139.04314 C390.82666,139.04314,390.82666,112.43922,455.68,112.43922 L455.68,115.45098 C390.82666,115.45098,390.82666,142.0549,325.97333,142.0549 z"/>
<text x="390.8266666666667" y="127.2470588235294">
1
</text>
</g>
<g class="edge">
<path d="M56.32,72.28236 C121.17333,72.28236,121.17333,187.23137,186.02667,187.23137 L186.02667,190.24313 C121.17333,190.24313,121.17333,75.29412,56.32,75.29412 z"/>
<text x="121.17333333333335" y="131.26274509803915">
1
</text>
</g>
<g class="edge">
<path d="M191.14667,187.23137 C256,187.23137,256,59.733334,320.85333,59.733334 L320.85333,62.7451 C256,62.7451,256,190.24313,191.14667,190.24313 z"/>
<text x="256" y="124.98823529411757">
1
</text>
</g>
<g class="edge">
<path d="M325.97333,59.733334 C390.82666,59.733334,390.82666,115.45098,455.68,115.45098 L455.68,118.462746 C390.82666,118.462746,390.82666,62.7451,325.97333,62.7451 z"/>
<text x="390.8266666666667" y="89.09803921568627">
1
</text>
</g>
<g class="edge">
<path d="M56.32,407.59216 C121.17333,407.59216,121.17333,65.75687,186.02667,65.75687 L186.02667,68.76863 C121.17333,68.76863,121.17333,410.6039,56.32,410.6039 z"/>
<text x="121.17333333333335" y="238.18039215686272">
1
</text>
</g>
<g class="edge">
<path d="M191.14667,65.75687 C256,65.75687,256,142.0549,320.85333,142.0549 L320.85333,145.06667 C256,145.06667,256,68.76863,191.14667,68.76863 z"/>
<text x="256" y="105.4117647058823">
1
</text>
</g>
<g class="edge">
<path d="M325.97333,142.0549 C390.82666,142.0549,390.82666,118.462746,455.68,118.462746 L455.68,121.47451 C390.82666,121.47451,390.82666,145.06667,325.97333,145.06667 z"/>
<text x="390.8266666666667" y="131.76470588235293">
1
</text>
</g>
<g class="edge">
<path d="M56.32,75.29412 C121.17333,75.29412,121.17333,190.24313,186.02667,190.24313 L186.02667,193.2549 C121.17333,193.2549,121.17333,78.305885,56.32,78.305885 z"/>
<text x="121.17333333333335" y="134.2745098039215">
1
</text>
</g>
<g class="edge">
<path d="M191.14667,190.24313 C256,190.24313,256,145.06667,320.85333,145.06667 L320.85333,148.07843 C256,148.07843,256,193.2549,191.14667,193.2549 z"/>
<text x="256" y="169.1607843137254">
1
</text>
</g>
<g class="edge">
<path d="M325.97333,145.06667 C390.82666,145.06667,390.82666,121.47451,455.68,121.47451 L455.68,124.486275 C390.82666,124.486275,390.82666,148.07843,325.97333,148.07843 z"/>
<text x="390.8266666666667" y="134.77647058823527">
1
</text>
</g>
<g class="edge">
<path d="M56.32,270.0549 C121.17333,270.0549,121.17333,68.76863,186.02667,68.76863 L186.02667,71.780396 C121.17333,71.780396,121.17333,273.06668,56.32,273.06668 z"/>
<text x="121.17333333333335" y="170.9176470588235">
1
</text>
</g>
<g class="edge">
<path d="M191.14667,68.76863 C256,68.76863,256,148.07843,320.85333,148.07843 L320.85333,151.0902 C256,151.0902,256,71.780396,191.14667,71.780396 z"/>
<text x="256" y="109.92941176470583">
1
</text>
</g>
<g class="edge">
<path d="M325.97333,148.07843 C390.82666,148.07843,390.82666,124.486275,455.68,124.486275 L455.68,127.49804 C390.82666,127.49804,390.82666,151.0902,325.97333,151.0902 z"/>
<text x="390.8266666666667" y="137.7882352941176">
1
</text>
</g>
<g class="edge">
<path d="M56.32,78.305885 C121.17333,78.305885,121.17333,193.2549,186.02667,193.2549 L186.02667,196.26666 C121.17333,196.26666,121.17333,81.31765,56.32,81.31765 z"/>
<text x="121.17333333333335" y="137.28627450980383">
1
</text>
</g>
<g class="edge">
<path d="M191.14667,193.2549 C256,193.2549,256,151.0902,320.85333,151.0902 L320.85333,154.10196 C256,154.10196,256,196.26666,191.14667,196.26666 z"/>
<text x="256" y="173.6784313725489">
1
</text>
</g>
<g class="edge">
<path d="M325.97333,151.0902 C390.82666,151.0902,390.82666,127.49804,455.68,127.49804 L455.68,130.50981 C390.82666,130.50981,390.82666,154.10196,325.97333,154.10196 z"/>
<text x="390.8266666666667" y="140.79999999999995">
1
</text>
</g>
<g class="edge">
<path d="M56.32,81.31765 C121.17333,81.31765,121.17333,196.26666,186.02667,196.26666 L186.02667,199.27843 C121.17333,199.27843,121.17333,84.329414,56.32,84.329414 z"/>
<text x="121.17333333333335" y="140.29803921568617">
1
</text>
</g>
<g class="edge">
<path d="M191.14667,196.26666 C256,196.26666,256,154.10196,320.85333,154.10196 L320.85333,157.11372 C256,157.11372,256,199.27843,191.14667,199.27843 z"/>
<text x="256" y="176.69019607843126">
1
</text>
</g>
<g class="edge">
<path d="M325.97333,154.10196 C390.82666,154.10196,390.82666,130.50981,455.68,130.50981 L455.68,133.52158 C390.82666,133.52158,390.82666,157.11372,325.97333,157.11372 z"/>
<text x="390.8266666666667" y="143.8117647058823">
1
</text>
</g>
<g class="edge">
<path d="M56.32,84.329414 C121.17333,84.329414,121.17333,199.27843,186.02667,199.27843 L186.02667,202.29019 C121.17333,202.29019,121.17333,87.34118,56.32,87.34118 z"/>
<text x="121.17333333333335" y="143.30980392156854">
1
</text>
</g>
<g class="edge">
<path d="M191.14667,199.27843 C256,199.27843,256,157.11372,320.85333,157.11372 L320.85333,160.12549 C256,160.12549,256,202.29019,191.14667,202.29019 z"/>
<text x="256" y="179.7019607843136">
1
</text>
</g>
<g class="edge">
<path d="M325.97333,157.11372 C390.82666,157.11372,390.82666,133.52158,455.68,133.52158 L455.68,136.53334 C390.82666,136.53334,390.82666,160.12549,325.97333,160.12549 z"/>
<text x="390.8266666666667" y="146.82352941176464">
1
</text>
</g>
<g class="edge">
<path d="M56.32,410.6039 C121.17333,410.6039,121.17333,202.29019,186.02667,202.29019 L186.02667,205.30196 C121.17333,205.30196,121.17333,413.6157,56.32,413.6157 z"/>
<text x="121.17333333333335" y="307.95294117647046">
1
</text>
</g>
<g class="edge">
<path d="M191.14667,202.29019 C256,202.29019,256,160.12549,320.85333,160.12549 L320.85333,163.13725 C256,163.13725,256,205.30196,191.14667,205.30196 z"/>
<text x="256" y="182.71372549019594">
1
</text>
</g>
<g class="edge">
<path d="M325.97333,160.12549 C390.82666,160.12549,390.82666,136.53334,455.68,136.53334 L455.68,139.5451 C390.82666,139.5451,390.82666,163.13725,325.97333,163.13725 z"/>
<text x="390.8266666666667" y="149.83529411764698">
1
</text>
</g>
<g class="edge">
<path d="M56.32,87.34118 C121.17333,87.34118,121.17333,205.30196,186.02667,205.30196 L186.02667,208.31372 C121.17333,208.31372,121.17333,90.35294,56.32,90.35294 z"/>
<text x="121.17333333333335" y="147.82745098039206">
1
</text>
</g>
<g class="edge">
<path d="M191.14667,205.30196 C256,205.30196,256,163.13725,320.85333,163.13725 L320.85333,166.14902 C256,166.14902,256,208.31372,191.14667,208.31372 z"/>
<text x="256" y="185.72549019607828">
1
</text>
</g>
<g class="edge">
<path d="M325.97333,163.13725 C390.82666,163.13725,390.82666,139.5451,455.68,139.5451 L455.68,142.55687 C390.82666,142.55687,390.82666,166.14902,325.97333,166.14902 z"/>
<text x="390.8266666666667" y="152.84705882352932">
1
</text>
</g>
<g class="edge">
<path d="M56.32,90.35294 C121.17333,90.35294,121.17333,208.31372,186.02667,208.31372 L186.02667,211.32549 C121.17333,211.32549,121.17333,93.36471,56.32,93.36471 z"/>
<text x="121.17333333333335" y="150.8392156862744">
1
</text>
</g>
<g class="edge">
<path d="M191.14667,208.31372 C256,208.31372,256,166.14902,320.85333,166.14902 L320.85333,169.16078 C256,169.16078,256,211.32549,191.14667,211.32549 z"/>
<text x="256" y="188.73725490196063">
1
</text>
</g>
<g class="edge">
<path d="M325.97333,166.14902 C390.82666,166.14902,390.82666,142.55687,455.68,142.55687 L455.68,145.56863 C390.82666,145.56863,390.82666,169.16078,325.97333,169.16078 z"/>
<text x="390.8266666666667" y="155.85882352941167">
1
</text>
</g>
<g class="edge">
<path d="M56.32,273.06668 C121.17333,273.06668,121.17333,71.780396,186.02667,71.780396 L186.02667,74.79216 C121.17333,74.79216,121.17333,276.07843,56.32,276.07843 z"/>
<text x="121.17333333333335" y="173.92941176470583">
1
</text>
</g>
<g class="edge">
<path d="M191.14667,71.780396 C256,71.780396,256,169.16078,320.85333,169.16078 L320.85333,172.17255 C256,172.17255,256,74.79216,191.14667,74.79216 z"/>
<text x="256" y="121.9764705882352">
1
</text>
</g>
<g class="edge">
<path d="M325.97333,169.16078 C390.82666,169.16078,390.82666,145.56863,455.68,145.56863 L455.68,148.5804 C390.82666,148.5804,390.82666,172.17255,325.97333,172.17255 z"/>
<text x="390.8266666666667" y="158.870588235294">
1
</text>
</g>
<g class="edge">
<path d="M56.32,276.07843 C121.17333,276.07843,121.17333,211.32549,186.02667,211.32549 L186.02667,214.33725 C121.17333,214.33725,121.17333,279.0902,56.32,279.0902 z"/>
<text x="121.17333333333335" y="245.20784313725477">
1
</text>
</g>
<g class="edge">
<path d="M191.14667,211.32549 C256,211.32549,256,172.17255,320.85333,172.17255 L320.85333,175.18431 C256,175.18431,256,214.33725,191.14667,214.33725 z"/>
<text x="256" y="193.25490196078414">
1
</text>
</g>
<g class="edge">
<path d="M325.97333,172.17255 C390.82666,172.17255,390.82666,148.5804,455.68,148.5804 L455.68,151.59216 C390.82666,151.59216,390.82666,175.18431,325.97333,175.18431 z"/>
<text x="390.8266666666667" y="161.88235294117635">
1
</text>
</g>
<g class="edge">
<path d="M56.32,93.36471 C121.17333,93.36471,121.17333,214.33725,186.02667,214.33725 L186.02667,217.34901 C121.17333,217.34901,121.17333,96.37647,56.32,96.37647 z"/>
<text x="121.17333333333335" y="155.35686274509794">
1
</text>
</g>
<g class="edge">
<path d="M191.14667,214.33725 C256,214.33725,256,175.18431,320.85333,175.18431 L320.85333,178.19608 C256,178.19608,256,217.34901,191.14667,217.34901 z"/>
<text x="256" y="196.26666666666648">
1
</text>
</g>
<g class="edge">
<path d="M325.97333,175.18431 C390.82666,175.18431,390.82666,151.59216,455.68,151.59216 L455.68,154.60393 C390.82666,154.60393,390.82666,178.19608,325.97333,178.19608 z"/>
<text x="390.8266666666667" y="164.8941176470587">
1
</text>
</g>
<g class="edge">
<path d="M56.32,279.0902 C121.17333,279.0902,121.17333,217.34901,186.02667,217.34901 L186.02667,220.36078 C121.17333,220.36078,121.17333,282.10196,56.32,282.10196 z"/>
<text x="121.17333333333335" y="249.72549019607828">
1
</text>
</g>
<g class="edge">
<path d="M191.14667,217.34901 C256,217.34901,256,178.19608,320.85333,178.19608 L320.85333,181.20784 C256,181.20784,256,220.36078,191.14667,220.36078 z"/>
<text x="256" y="199.27843137254882">
1
</text>
</g>
<g class="edge">
<path d="M325.97333,178.19608 C390.82666,178.19608,390.82666,154.60393,455.68,154.60393 L455.68,157.61569 C390.82666,157.61569,390.82666,181.20784,325.97333,181.20784 z"/>
<text x="390.8266666666667" y="167.90588235294103">
1
</text>
</g>
<g class="edge">
<path d="M56.32,96.37647 C121.17333,96.37647,121.17333,220.36078,186.02667,220.36078 L186.02667,223.37254 C121.17333,223.37254,121.17333,99.38824,56.32,99.38824 z"/>
<text x="121.17333333333335" y="159.87450980392146">
1
</text>
</g>
<g class="edge">
<path d="M191.14667,220.36078 C256,220.36078,256,181.20784,320.85333,181.20784 L320.85333,184.2196 C256,184.2196,256,223.37254,191.14667,223.37254 z"/>
<text x="256" y="202.29019607843117">
1
</text>
</g>
<g class="edge">
<path d="M325.97333,181.20784 C390.82666,181.20784,390.82666,157.61569,455.68,157.61569 L455.68,160.62746 C390.82666,160.62746,390.82666,184.2196,325.97333,184.2196 z"/>
<text x="390.8266666666667" y="170.91764705882338">
1
</text>
</g>
<g class="edge">
<path d="M56.32,99.38824 C121.17333,99.38824,121.17333,223.37254,186.02667,223.37254 L186.02667,226.38431 C121.17333,226.38431,121.17333,102.4,56.32,102.4 z"/>
<text x="121.17333333333335" y="162.8862745098038">
1
</text>
</g>
<g class="edge">
<path d="M191.14667,223.37254 C256,223.37254,256,184.2196,320.85333,184.2196 L320.85333,187.23137 C256,187.23137,256,226.38431,191.14667,226.38431 z"/>
<text x="256" y="205.3019607843135">
1
</text>
</g>
<g class="edge">
<path d="M325.97333,184.2196 C390.82666,184.2196,390.82666,160.62746,455.68,160.62746 L455.68,163.63922 C390.82666,163.63922,390.82666,187.23137,325.97333,187.23137 z"/>
<text x="390.8266666666667" y="173.92941176470572">
1
</text>
</g>
<g class="edge">
<path d="M56.32,282.10196 C121.17333,282.10196,121.17333,226.38431,186.02667,226.38431 L186.02667,229.39607 C121.17333,229.39607,121.17333,285.11374,56.32,285.11374 z"/>
<text x="121.17333333333335" y="255.74901960784297">
1
</text>
</g>
<g class="edge">
<path d="M191.14667,226.38431 C256,226.38431,256,187.23137,320.85333,187.23137 L320.85333,190.24313 C256,190.24313,256,229.39607,191.14667,229.39607 z"/>
<text x="256" y="208.31372549019585">
1
</text>
</g>
<g class="edge">
<path d="M325.97333,187.23137 C390.82666,187.23137,390.82666,163.63922,455.68,163.63922 L455.68,166.65099 C390.82666,166.65099,390.82666,190.24313,325.97333,190.24313 z"/>
<text x="390.8266666666667" y="176.94117647058806">
1
</text>
</g>
<g class="edge">
<path d="M56.32,102.4 C121.17333,102.4,121.17333,229.39607,186.02667,229.39607 L186.02667,232.40784 C121.17333,232.40784,121.17333,105.411766,56.32,105.411766 z"/>
<text x="121.17333333333335" y="167.4039215686273">
1
</text>
</g>
<g class="edge">
<path d="M191.14667,229.39607 C256,229.39607,256,190.24313,320.85333,190.24313 L320.85333,193.2549 C256,193.2549,256,232.40784,191.14667,232.40784 z"/>
<text x="256" y="211.3254901960782">
1
</text>
</g>
<g class="edge">
<path d="M325.97333,190.24313 C390.82666,190.24313,390.82666,166.65099,455.68,166.65099 L455.68,169.66275 C390.82666,169.66275,390.82666,193.2549,325.97333,193.2549 z"/>
<text x="390.8266666666667" y="179.9529411764704">
1
</text>
</g>
<g class="edge">
<path d="M56.32,105.411766 C121.17333,105.411766,121.17333,232.40784,186.02667,232.40784 L186.02667,235.4196 C121.17333,235.4196,121.17333,108.42353,56.32,108.42353 z"/>
<text x="121.17333333333335" y="170.41568627450965">
1
</text>
</g>
<g class="edge">
<path d="M191.14667,232.40784 C256,232.40784,256,193.2549,320.85333,193.2549 L320.85333,196.26666 C256,196.26666,256,235.4196,191.14667,235.4196 z"/>
<text x="256" y="214.33725490196053">
1
</text>
</g>
<g class="edge">
<path d="M325.97333,193.2549 C390.82666,193.2549,390.82666,169.66275,455.68,169.66275 L455.68,172.67451 C390.82666,172.67451,390.82666,196.26666,325.97333,196.26666 z"/>
<text x="390.8266666666667" y="182.96470588235275">
1
</text>
</g>
<g class="edge">
<path d="M56.32,413.6157 C121.17333,413.6157,121.17333,235.4196,186.02667,235.4196 L186.02667,238.43137 C121.17333,238.43137,121.17333,416.62744,56.32,416.62744 z"/>
<text x="121.17333333333335" y="326.0235294117645">
1
</text>
</g>
<g class="edge">
<path d="M191.14667,235.4196 C256,235.4196,256,196.26666,320.85333,196.26666 L320.85333,199.27843 C256,199.27843,256,238.43137,191.14667,238.43137 z"/>
<text x="256" y="217.34901960784288">
1
</text>
</g>
<g class="edge">
<path d="M325.97333,196.26666 C390.82666,196.26666,390.82666,172.67451,455.68,172.67451 L455.68,175.68628 C390.82666,175.68628,390.82666,199.27843,325.97333,199.27843 z"/>
<text x="390.8266666666667" y="185.9764705882351">
1
</text>
</g>
<g class="edge">
<path d="M56.32,285.11374 C121.17333,285.11374,121.17333,238.43137,186.02667,238.43137 L186.02667,241.44313 C121.17333,241.44313,121.17333,288.1255,56.32,288.1255 z"/>
<text x="121.17333333333335" y="263.2784313725488">
1
</text>
</g>
<g class="edge">
<path d="M191.14667,238.43137 C256,238.43137,256,199.27843,320.85333,199.27843 L320.85333,202.29019 C256,202.29019,256,241.44313,191.14667,241.44313 z"/>
<text x="256" y="220.36078431372522">
1
</text>
</g>
<g class="edge">
<path d="M325.97333,199.27843 C390.82666,199.27843,390.82666,175.68628,455.68,175.68628 L455.68,178.69804 C390.82666,178.69804,390.82666,202.29019,325.97333,202.29019 z"/>
<text x="390.8266666666667" y="188.98823529411743">
1
</text>
</g>
<g class="edge">
<path d="M56.32,108.42353 C121.17333,108.42353,121.17333,241.44313,186.02667,241.44313 L186.02667,244.4549 C121.17333,244.4549,121.17333,111.435295,56.32,111.435295 z"/>
<text x="121.17333333333335" y="176.43921568627437">
1
</text>
</g>
<g class="edge">
<path d="M191.14667,241.44313 C256,241.44313,256,202.29019,320.85333,202.29019 L320.85333,205.30196 C256,205.30196,256,244.4549,191.14667,244.4549 z"/>
<text x="256" y="223.37254901960756">
1
</text>
</g>
<g class="edge">
<path d="M325.97333,202.29019 C390.82666,202.29019,390.82666,178.69804,455.68,178.69804 L455.68,181.70981 C390.82666,181.70981,390.82666,205.30196,325.97333,205.30196 z"/>
<text x="390.8266666666667" y="191.99999999999977">
1
</text>
</g>
<g class="edge">
<path d="M56.32,111.435295 C121.17333,111.435295,121.17333,244.4549,186.02667,244.4549 L186.02667,247.46666 C121.17333,247.46666,121.17333,114.44706,56.32,114.44706 z"/>
<text x="121.17333333333335" y="179.4509803921567">
1
</text>
</g>
<g class="edge">
<path d="M191.14667,244.4549 C256,244.4549,256,205.30196,320.85333,205.30196 L320.85333,208.31372 C256,208.31372,256,247.46666,191.14667,247.46666 z"/>
<text x="256" y="226.3843137254899">
1
</text>
</g>
<g class="edge">
<path d="M325.97333,205.30196 C390.82666,205.30196,390.82666,181.70981,455.68,181.70981 L455.68,184.72157 C390.82666,184.72157,390.82666,208.31372,325.97333,208.31372 z"/>
<text x="390.8266666666667" y="195.01176470588211">
1
</text>
</g>
<g class="edge">
<path d="M56.32,114.44706 C121.17333,114.44706,121.17333,247.46666,186.02667,247.46666 L186.02667,250.47842 C121.17333,250.47842,121.17333,117.458824,56.32,117.458824 z"/>
<text x="121.17333333333335" y="182.46274509803905">
1
</text>
</g>
<g class="edge">
<path d="M191.14667,247.46666 C256,247.46666,256,208.31372,320.85333,208.31372 L320.85333,211.32549 C256,211.32549,256,250.47842,191.14667,250.47842 z"/>
<text x="256" y="229.39607843137225">
1
</text>
</g>
<g class="edge">
<path d="M325.97333,208.31372 C390.82666,208.31372,390.82666,184.72157,455.68,184.72157 L455.68,187.73334 C390.82666,187.73334,390.82666,211.32549,325.97333,211.32549 z"/>
<text x="390.8266666666667" y="198.02352941176446">
1
</text>
</g>
<g class="edge">
<path d="M56.32,117.458824 C121.17333,117.458824,121.17333,250.47842,186.02667,250.47842 L186.02667,253.49019 C121.17333,253.49019,121.17333,120.47059,56.32,120.47059 z"/>
<text x="121.17333333333335" y="185.47450980392142">
1
</text>
</g>
<g class="edge">
<path d="M191.14667,250.47842 C256,250.47842,256,211.32549,320.85333,211.32549 L320.85333,214.33725 C256,214.33725,256,253.49019,191.14667,253.49019 z"/>
<text x="256" y="232.4078431372546">
1
</text>
</g>
<g class="edge">
<path d="M325.97333,211.32549 C390.82666,211.32549,390.82666,187.73334,455.68,187.73334 L455.68,190.7451 C390.82666,190.7451,390.82666,214.33725,325.97333,214.33725 z"/>
<text x="390.8266666666667" y="201.0352941176468">
1
</text>
</g>
<g class="edge">
<path d="M56.32,120.47059 C121.17333,120.47059,121.17333,74.79216,186.02667,74.79216 L186.02667,77.803925 C121.17333,77.803925,121.17333,123.48235,56.32,123.48235 z"/>
<text x="121.17333333333335" y="99.1372549019608">
1
</text>
</g>
<g class="edge">
<path d="M191.14667,74.79216 C256,74.79216,256,214.33725,320.85333,214.33725 L320.85333,217.34901 C256,217.34901,256,77.803925,191.14667,77.803925 z"/>
<text x="256" y="146.07058823529394">
1
</text>
</g>
<g class="edge">
<path d="M325.97333,214.33725 C390.82666,214.33725,390.82666,190.7451,455.68,190.7451 L455.68,193.75687 C390.82666,193.75687,390.82666,217.34901,325.97333,217.34901 z"/>
<text x="390.8266666666667" y="204.04705882352914">
1
</text>
</g>
<g class="edge">
<path d="M56.32,123.48235 C121.17333,123.48235,121.17333,253.49019,186.02667,253.49019 L186.02667,256.50195 C121.17333,256.50195,121.17333,126.49412,56.32,126.49412 z"/>
<text x="121.17333333333335" y="189.99215686274493">
1
</text>
</g>
<g class="edge">
<path d="M191.14667,253.49019 C256,253.49019,256,217.34901,320.85333,217.34901 L320.85333,220.36078 C256,220.36078,256,256.50195,191.14667,256.50195 z"/>
<text x="256" y="236.9254901960781">
1
</text>
</g>
<g class="edge">
<path d="M325.97333,217.34901 C390.82666,217.34901,390.82666,193.75687,455.68,193.75687 L455.68,196.76863 C390.82666,196.76863,390.82666,220.36078,325.97333,220.36078 z"/>
<text x="390.8266666666667" y="207.05882352941148">
1
</text>
</g>
<g class="edge">
<path d="M56.32,288.1255 C121.17333,288.1255,121.17333,256.50195,186.02667,256.50195 L186.02667,259.51373 C121.17333,259.51373,121.17333,291.13727,56.32,291.13727 z"/>
<text x="121.17333333333335" y="273.819607843137">
1
</text>
</g>
<g class="edge">
<path d="M191.14667,256.50195 C256,256.50195,256,220.36078,320.85333,220.36078 L320.85333,223.37254 C256,223.37254,256,259.51373,191.14667,259.51373 z"/>
<text x="256" y="239.93725490196044">
1
</text>
</g>
<g class="edge">
<path d="M325.97333,220.36078 C390.82666,220.36078,390.82666,196.76863,455.68,196.76863 L455.68,199.7804 C390.82666,199.7804,390.82666,223.37254,325.97333,223.37254 z"/>
<text x="390.8266666666667" y="210.07058823529383">
1
</text>
</g>
<g class="edge">
<path d="M56.32,126.49412 C121.17333,126.49412,121.17333,259.51373,186.02667,259.51373 L186.02667,262.52548 C121.17333,262.52548,121.17333,129.50589,56.32,129.50589 z"/>
<text x="121.17333333333335" y="194.50980392156848">
1
</text>
</g>
<g class="edge">
<path d="M191.14667,259.51373 C256,259.51373,256,223.37254,320.85333,223.37254 L320.85333,226.38431 C256,226.38431,256,262.52548,191.14667,262.52548 z"/>
<text x="256" y="242.94901960784279">
1
</text>
</g>
<g class="edge">
<path d="M325.97333,223.37254 C390.82666,223.37254,390.82666,199.7804,455.68,199.7804 L455.68,202.79216 C390.82666,202.79216,390.82666,226.38431,325.97333,226.38431 z"/>
<text x="390.8266666666667" y="213.08235294117617">
1
</text>
</g>
<g class="edge">
<path d="M56.32,291.13727 C121.17333,291.13727,121.17333,77.803925,186.02667,77.803925 L186.02667,80.81569 C121.17333,80.81569,121.17333,294.14902,56.32,294.14902 z"/>
<text x="121.17333333333335" y="185.97647058823523">
1
</text>
</g>
<g class="edge">
<path d="M191.14667,77.803925 C256,77.803925,256,226.38431,320.85333,226.38431 L320.85333,229.39607 C256,229.39607,256,80.81569,191.14667,80.81569 z"/>
<text x="256" y="153.5999999999998">
1
</text>
</g>
<g class="edge">
<path d="M325.97333,226.38431 C390.82666,226.38431,390.82666,202.79216,455.68,202.79216 L455.68,205.80392 C390.82666,205.80392,390.82666,229.39607,325.97333,229.39607 z"/>
<text x="390.8266666666667" y="216.0941176470585">
1
</text>
</g>
<g class="edge">
<path d="M56.32,129.50589 C121.17333,129.50589,121.17333,262.52548,186.02667,262.52548 L186.02667,265.53726 C121.17333,265.53726,121.17333,132.51765,56.32,132.51765 z"/>
<text x="121.17333333333335" y="197.52156862745082">
1
</text>
</g>
<g class="edge">
<path d="M191.14667,262.52548 C256,262.52548,256,229.39607,320.85333,229.39607 L320.85333,232.40784 C256,232.40784,256,265.53726,191.14667,265.53726 z"/>
<text x="256" y="247.4666666666663">
1
</text>
</g>
<g class="edge">
<path d="M325.97333,229.39607 C390.82666,229.39607,390.82666,205.80392,455.68,205.80392 L455.68,208.81569 C390.82666,208.81569,390.82666,232.40784,325.97333,232.40784 z"/>
<text x="390.8266666666667" y="219.10588235294085">
1
</text>
</g>
<g class="edge">
<path d="M56.32,294.14902 C121.17333,294.14902,121.17333,265.53726,186.02667,265.53726 L186.02667,268.549 C121.17333,268.549,121.17333,297.1608,56.32,297.1608 z"/>
<text x="121.17333333333335" y="281.3490196078429">
1
</text>
</g>
<g class="edge">
<path d="M191.14667,265.53726 C256,265.53726,256,232.40784,320.85333,232.40784 L320.85333,235.4196 C256,235.4196,256,268.549,191.14667,268.549 z"/>
<text x="256" y="250.47843137254864">
1
</text>
</g>
<g class="edge">
<path d="M325.97333,232.40784 C390.82666,232.40784,390.82666,208.81569,455.68,208.81569 L455.68,211.82745 C390.82666,211.82745,390.82666,235.4196,325.97333,235.4196 z"/>
<text x="390.8266666666667" y="222.1176470588232">
1
</text>
</g>
<g class="edge">
<path d="M56.32,297.1608 C121.17333,297.1608,121.17333,268.549,186.02667,268.549 L186.02667,271.5608 C121.17333,271.5608,121.17333,300.17255,56.32,300.17255 z"/>
<text x="121.17333333333335" y="284.3607843137252">
1
</text>
</g>
<g class="edge">
<path d="M191.14667,268.549 C256,268.549,256,235.4196,320.85333,235.4196 L320.85333,238.43137 C256,238.43137,256,271.5608,191.14667,271.5608 z"/>
<text x="256" y="253.49019607843098">
1
</text>
</g>
<g class="edge">
<path d="M325.97333,235.4196 C390.82666,235.4196,390.82666,211.82745,455.68,211.82745 L455.68,214.83922 C390.82666,214.83922,390.82666,238.43137,325.97333,238.43137 z"/>
<text x="390.8266666666667" y="225.12941176470554">
1
</text>
</g>
<g class="edge">
<path d="M56.32,132.51765 C121.17333,132.51765,121.17333,80.81569,186.02667,80.81569 L186.02667,83.82745 C121.17333,83.82745,121.17333,135.52942,56.32,135.52942 z"/>
<text x="121.17333333333335" y="108.17254901960786">
1
</text>
</g>
<g class="edge">
<path d="M191.14667,80.81569 C256,80.81569,256,238.43137,320.85333,238.43137 L320.85333,241.44313 C256,241.44313,256,83.82745,191.14667,83.82745 z"/>
<text x="256" y="161.12941176470568">
1
</text>
</g>
<g class="edge">
<path d="M325.97333,238.43137 C390.82666,238.43137,390.82666,214.83922,455.68,214.83922 L455.68,217.85098 C390.82666,217.85098,390.82666,241.44313,325.97333,241.44313 z"/>
<text x="390.8266666666667" y="228.14117647058788">
1
</text>
</g>
<g class="edge">
<path d="M56.32,135.52942 C121.17333,135.52942,121.17333,271.5608,186.02667,271.5608 L186.02667,274.57254 C121.17333,274.57254,121.17333,138.54118,56.32,138.54118 z"/>
<text x="121.17333333333335" y="205.05098039215667">
1
</text>
</g>
<g class="edge">
<path d="M191.14667,271.5608 C256,271.5608,256,241.44313,320.85333,241.44313 L320.85333,244.4549 C256,244.4549,256,274.57254,191.14667,274.57254 z"/>
<text x="256" y="258.0078431372545">
1
</text>
</g>
<g class="edge">
<path d="M325.97333,241.44313 C390.82666,241.44313,390.82666,217.85098,455.68,217.85098 L455.68,220.86275 C390.82666,220.86275,390.82666,244.4549,325.97333,244.4549 z"/>
<text x="390.8266666666667" y="231.15294117647022">
1
</text>
</g>
<g class="edge">
<path d="M56.32,300.17255 C121.17333,300.17255,121.17333,274.57254,186.02667,274.57254 L186.02667,277.58432 C121.17333,277.58432,121.17333,303.18433,56.32,303.18433 z"/>
<text x="121.17333333333335" y="288.87843137254873">
1
</text>
</g>
<g class="edge">
<path d="M191.14667,274.57254 C256,274.57254,256,244.4549,320.85333,244.4549 L320.85333,247.46666 C256,247.46666,256,277.58432,191.14667,277.58432 z"/>
<text x="256" y="261.01960784313684">
1
</text>
</g>
<g class="edge">
<path d="M325.97333,244.4549 C390.82666,244.4549,390.82666,68.26667,455.68,68.26667 L455.68,71.278435 C390.82666,71.278435,390.82666,247.46666,325.97333,247.46666 z"/>
<text x="390.8266666666667" y="157.86666666666645">
1
</text>
</g>
<g class="edge">
<path d="M56.32,303.18433 C121.17333,303.18433,121.17333,277.58432,186.02667,277.58432 L186.02667,280.59607 C121.17333,280.59607,121.17333,306.19608,56.32,306.19608 z"/>
<text x="121.17333333333335" y="291.8901960784311">
1
</text>
</g>
<g class="edge">
<path d="M191.14667,277.58432 C256,277.58432,256,247.46666,320.85333,247.46666 L320.85333,250.47842 C256,250.47842,256,280.59607,191.14667,280.59607 z"/>
<text x="256" y="264.0313725490192">
1
</text>
</g>
<g class="edge">
<path d="M325.97333,247.46666 C390.82666,247.46666,390.82666,220.86275,455.68,220.86275 L455.68,223.87451 C390.82666,223.87451,390.82666,250.47842,325.97333,250.47842 z"/>
<text x="390.8266666666667" y="235.67058823529374">
1
</text>
</g>
<g class="edge">
<path d="M56.32,138.54118 C121.17333,138.54118,121.17333,280.59607,186.02667,280.59607 L186.02667,283.60785 C121.17333,283.60785,121.17333,141.55295,56.32,141.55295 z"/>
<text x="121.17333333333335" y="211.07450980392136">
1
</text>
</g>
<g class="edge">
<path d="M191.14667,280.59607 C256,280.59607,256,250.47842,320.85333,250.47842 L320.85333,253.49019 C256,253.49019,256,283.60785,191.14667,283.60785 z"/>
<text x="256" y="267.0431372549015">
1
</text>
</g>
<g class="edge">
<path d="M325.97333,250.47842 C390.82666,250.47842,390.82666,223.87451,455.68,223.87451 L455.68,226.88628 C390.82666,226.88628,390.82666,253.49019,325.97333,253.49019 z"/>
<text x="390.8266666666667" y="238.68235294117608">
1
</text>
</g>
<g class="edge">
<path d="M56.32,141.55295 C121.17333,141.55295,121.17333,83.82745,186.02667,83.82745 L186.02667,86.83922 C121.17333,86.83922,121.17333,144.56471,56.32,144.56471 z"/>
<text x="121.17333333333335" y="114.19607843137254">
1
</text>
</g>
<g class="edge">
<path d="M191.14667,83.82745 C256,83.82745,256,253.49019,320.85333,253.49019 L320.85333,256.50195 C256,256.50195,256,86.83922,191.14667,86.83922 z"/>
<text x="256" y="170.1647058823527">
1
</text>
</g>
<g class="edge">
<path d="M325.97333,253.49019 C390.82666,253.49019,390.82666,226.88628,455.68,226.88628 L455.68,229.89804 C390.82666,229.89804,390.82666,256.50195,325.97333,256.50195 z"/>
<text x="390.8266666666667" y="241.69411764705842">
1
</text>
</g>
<g class="edge">
<path d="M56.32,306.19608 C121.17333,306.19608,121.17333,283.60785,186.02667,283.60785 L186.02667,286.6196 C121.17333,286.6196,121.17333,309.20786,56.32,309.20786 z"/>
<text x="121.17333333333335" y="296.4078431372546">
1
</text>
</g>
<g class="edge">
<path d="M191.14667,283.60785 C256,283.60785,256,256.50195,320.85333,256.50195 L320.85333,259.51373 C256,259.51373,256,286.6196,191.14667,286.6196 z"/>
<text x="256" y="271.56078431372504">
1
</text>
</g>
<g class="edge">
<path d="M325.97333,256.50195 C390.82666,256.50195,390.82666,229.89804,455.68,229.89804 L455.68,232.9098 C390.82666,232.9098,390.82666,259.51373,325.97333,259.51373 z"/>
<text x="390.8266666666667" y="244.70588235294076">
1
</text>
</g>
<g class="edge">
<path d="M56.32,144.56471 C121.17333,144.56471,121.17333,286.6196,186.02667,286.6196 L186.02667,289.63138 C121.17333,289.63138,121.17333,147.57648,56.32,147.57648 z"/>
<text x="121.17333333333335" y="217.09803921568604">
1
</text>
</g>
<g class="edge">
<path d="M191.14667,286.6196 C256,286.6196,256,259.51373,320.85333,259.51373 L320.85333,262.52548 C256,262.52548,256,289.63138,191.14667,289.63138 z"/>
<text x="256" y="274.5725490196074">
1
</text>
</g>
<g class="edge">
<path d="M325.97333,259.51373 C390.82666,259.51373,390.82666,232.9098,455.68,232.9098 L455.68,235.92157 C390.82666,235.92157,390.82666,262.52548,325.97333,262.52548 z"/>
<text x="390.8266666666667" y="247.7176470588231">
1
</text>
</g>
<g class="edge">
<path d="M56.32,309.20786 C121.17333,309.20786,121.17333,289.63138,186.02667,289.63138 L186.02667,292.64313 C121.17333,292.64313,121.17333,312.2196,56.32,312.2196 z"/>
<text x="121.17333333333335" y="300.9254901960781">
1
</text>
</g>
<g class="edge">
<path d="M191.14667,289.63138 C256,289.63138,256,262.52548,320.85333,262.52548 L320.85333,265.53726 C256,265.53726,256,292.64313,191.14667,292.64313 z"/>
<text x="256" y="277.5843137254897">
1
</text>
</g>
<g class="edge">
<path d="M325.97333,262.52548 C390.82666,262.52548,390.82666,235.92157,455.68,235.92157 L455.68,238.93333 C390.82666,238.93333,390.82666,265.53726,325.97333,265.53726 z"/>
<text x="390.8266666666667" y="250.72941176470545">
1
</text>
</g>
<g class="edge">
<path d="M56.32,147.57648 C121.17333,147.57648,121.17333,292.64313,186.02667,292.64313 L186.02667,295.6549 C121.17333,295.6549,121.17333,150.58824,56.32,150.58824 z"/>
<text x="121.17333333333335" y="221.61568627450956">
1
</text>
</g>
<g class="edge">
<path d="M191.14667,292.64313 C256,292.64313,256,265.53726,320.85333,265.53726 L320.85333,268.549 C256,268.549,256,295.6549,191.14667,295.6549 z"/>
<text x="256" y="280.59607843137206">
1
</text>
</g>
<g class="edge">
<path d="M325.97333,265.53726 C390.82666,265.53726,390.82666,238.93333,455.68,238.93333 L455.68,241.9451 C390.82666,241.9451,390.82666,268.549,325.97333,268.549 z"/>
<text x="390.8266666666667" y="253.7411764705878">
1
</text>
</g>
<g class="edge">
<path d="M56.32,312.2196 C121.17333,312.2196,121.17333,295.6549,186.02667,295.6549 L186.02667,298.66666 C121.17333,298.66666,121.17333,315.23138,56.32,315.23138 z"/>
<text x="121.17333333333335" y="305.4431372549016">
1
</text>
</g>
<g class="edge">
<path d="M191.14667,295.6549 C256,295.6549,256,268.549,320.85333,268.549 L320.85333,271.5608 C256,271.5608,256,298.66666,191.14667,298.66666 z"/>
<text x="256" y="283.6078431372544">
1
</text>
</g>
<g class="edge">
<path d="M325.97333,268.549 C390.82666,268.549,390.82666,241.9451,455.68,241.9451 L455.68,244.95686 C390.82666,244.95686,390.82666,271.5608,325.97333,271.5608 z"/>
<text x="390.8266666666667" y="256.75294117647013">
1
</text>
</g>
<g class="edge">
<path d="M56.32,150.58824 C121.17333,150.58824,121.17333,298.66666,186.02667,298.66666 L186.02667,301.67844 C121.17333,301.67844,121.17333,153.6,56.32,153.6 z"/>
<text x="121.17333333333335" y="226.13333333333307">
1
</text>
</g>
<g class="edge">
<path d="M191.14667,298.66666 C256,298.66666,256,271.5608,320.85333,271.5608 L320.85333,274.57254 C256,274.57254,256,301.67844,191.14667,301.67844 z"/>
<text x="256" y="286.61960784313675">
1
</text>
</g>
<g class="edge">
<path d="M325.97333,271.5608 C390.82666,271.5608,390.82666,244.95686,455.68,244.95686 L455.68,247.96863 C390.82666,247.96863,390.82666,274.57254,325.97333,274.57254 z"/>
<text x="390.8266666666667" y="259.7647058823525">
1
</text>
</g>
<g class="edge">
<path d="M56.32,416.62744 C121.17333,416.62744,121.17333,301.67844,186.02667,301.67844 L186.02667,304.6902 C121.17333,304.6902,121.17333,419.63922,56.32,419.63922 z"/>
<text x="121.17333333333335" y="360.6588235294115">
1
</text>
</g>
<g class="edge">
<path d="M191.14667,301.67844 C256,301.67844,256,62.7451,320.85333,62.7451 L320.85333,65.75687 C256,65.75687,256,304.6902,191.14667,304.6902 z"/>
<text x="256" y="183.71764705882327">
1
</text>
</g>
<g class="edge">
<path d="M325.97333,62.7451 C390.82666,62.7451,390.82666,247.96863,455.68,247.96863 L455.68,250.9804 C390.82666,250.9804,390.82666,65.75687,325.97333,65.75687 z"/>
<text x="390.8266666666667" y="156.862745098039">
1
</text>
</g>
<g class="edge">
<path d="M56.32,315.23138 C121.17333,315.23138,121.17333,304.6902,186.02667,304.6902 L186.02667,307.70197 C121.17333,307.70197,121.17333,318.24313,56.32,318.24313 z"/>
<text x="121.17333333333335" y="311.4666666666663">
1
</text>
</g>
<g class="edge">
<path d="M191.14667,304.6902 C256,304.6902,256,65.75687,320.85333,65.75687 L320.85333,68.76863 C256,68.76863,256,307.70197,191.14667,307.70197 z"/>
<text x="256" y="186.72941176470562">
1
</text>
</g>
<g class="edge">
<path d="M325.97333,65.75687 C390.82666,65.75687,390.82666,250.9804,455.68,250.9804 L455.68,253.99216 C390.82666,253.99216,390.82666,68.76863,325.97333,68.76863 z"/>
<text x="390.8266666666667" y="159.87450980392134">
1
</text>
</g>
<g class="edge">
<path d="M56.32,318.24313 C121.17333,318.24313,121.17333,307.70197,186.02667,307.70197 L186.02667,310.7137 C121.17333,310.7137,121.17333,321.2549,56.32,321.2549 z"/>
<text x="121.17333333333335" y="314.47843137254864">
1
</text>
</g>
<g class="edge">
<path d="M191.14667,307.70197 C256,307.70197,256,274.57254,320.85333,274.57254 L320.85333,277.58432 C256,277.58432,256,310.7137,191.14667,310.7137 z"/>
<text x="256" y="292.64313725490143">
1
</text>
</g>
<g class="edge">
<path d="M325.97333,274.57254 C390.82666,274.57254,390.82666,253.99216,455.68,253.99216 L455.68,257.00394 C390.82666,257.00394,390.82666,277.58432,325.97333,277.58432 z"/>
<text x="390.8266666666667" y="265.78823529411716">
1
</text>
</g>
<g class="edge">
<path d="M56.32,419.63922 C121.17333,419.63922,121.17333,140.04706,186.02667,140.04706 L186.02667,143.05882 C121.17333,143.05882,121.17333,422.65097,56.32,422.65097 z"/>
<text x="121.17333333333335" y="281.34901960784305">
1
</text>
</g>
<g class="edge">
<path d="M191.14667,140.04706 C256,140.04706,256,277.58432,320.85333,277.58432 L320.85333,280.59607 C256,280.59607,256,143.05882,191.14667,143.05882 z"/>
<text x="256" y="210.3215686274507">
1
</text>
</g>
<g class="edge">
<path d="M325.97333,277.58432 C390.82666,277.58432,390.82666,257.00394,455.68,257.00394 L455.68,260.0157 C390.82666,260.0157,390.82666,280.59607,325.97333,280.59607 z"/>
<text x="390.8266666666667" y="268.7999999999995">
1
</text>
</g>
<g class="edge">
<path d="M56.32,422.65097 C121.17333,422.65097,121.17333,310.7137,186.02667,310.7137 L186.02667,313.7255 C121.17333,313.7255,121.17333,425.66275,56.32,425.66275 z"/>
<text x="121.17333333333335" y="368.18823529411736">
1
</text>
</g>
<g class="edge">
<path d="M191.14667,310.7137 C256,310.7137,256,280.59607,320.85333,280.59607 L320.85333,283.60785 C256,283.60785,256,313.7255,191.14667,313.7255 z"/>
<text x="256" y="297.16078431372495">
1
</text>
</g>
<g class="edge">
<path d="M325.97333,280.59607 C390.82666,280.59607,390.82666,260.0157,455.68,260.0157 L455.68,263.02747 C390.82666,263.02747,390.82666,283.60785,325.97333,283.60785 z"/>
<text x="390.8266666666667" y="271.81176470588184">
1
</text>
</g>
<g class="edge">
<path d="M56.32,321.2549 C121.17333,321.2549,121.17333,313.7255,186.02667,313.7255 L186.02667,316.73724 C121.17333,316.73724,121.17333,324.26666,56.32,324.26666 z"/>
<text x="121.17333333333335" y="318.99607843137215">
1
</text>
</g>
<g class="edge">
<path d="M191.14667,313.7255 C256,313.7255,256,283.60785,320.85333,283.60785 L320.85333,286.6196 C256,286.6196,256,316.73724,191.14667,316.73724 z"/>
<text x="256" y="300.1725490196073">
1
</text>
</g>
<g class="edge">
<path d="M325.97333,283.60785 C390.82666,283.60785,390.82666,263.02747,455.68,263.02747 L455.68,266.0392 C390.82666,266.0392,390.82666,286.6196,325.97333,286.6196 z"/>
<text x="390.8266666666667" y="274.8235294117642">
1
</text>
</g>
<g class="edge">
<path d="M56.32,153.6 C121.17333,153.6,121.17333,316.73724,186.02667,316.73724 L186.02667,319.74902 C121.17333,319.74902,121.17333,156.61177,56.32,156.61177 z"/>
<text x="121.17333333333335" y="236.67450980392127">
1
</text>
</g>
<g class="edge">
<path d="M191.14667,316.73724 C256,316.73724,256,286.6196,320.85333,286.6196 L320.85333,289.63138 C256,289.63138,256,319.74902,191.14667,319.74902 z"/>
<text x="256" y="303.18431372548963">
1
</text>
</g>
<g class="edge">
<path d="M325.97333,286.6196 C390.82666,286.6196,390.82666,266.0392,455.68,266.0392 L455.68,269.051 C390.82666,269.051,390.82666,289.63138,325.97333,289.63138 z"/>
<text x="390.8266666666667" y="277.8352941176465">
1
</text>
</g>
<g class="edge">
<path d="M56.32,425.66275 C121.17333,425.66275,121.17333,319.74902,186.02667,319.74902 L186.02667,322.76077 C121.17333,322.76077,121.17333,428.6745,56.32,428.6745 z"/>
<text x="121.17333333333335" y="374.21176470588205">
1
</text>
</g>
<g class="edge">
<path d="M191.14667,319.74902 C256,319.74902,256,289.63138,320.85333,289.63138 L320.85333,292.64313 C256,292.64313,256,322.76077,191.14667,322.76077 z"/>
<text x="256" y="306.196078431372">
1
</text>
</g>
<g class="edge">
<path d="M325.97333,289.63138 C390.82666,289.63138,390.82666,269.051,455.68,269.051 L455.68,272.06274 C390.82666,272.06274,390.82666,292.64313,325.97333,292.64313 z"/>
<text x="390.8266666666667" y="280.84705882352887">
1
</text>
</g>
<g class="edge">
<path d="M56.32,156.61177 C121.17333,156.61177,121.17333,143.05882,186.02667,143.05882 L186.02667,146.07059 C121.17333,146.07059,121.17333,159.62354,56.32,159.62354 z"/>
<text x="121.17333333333335" y="151.34117647058818">
1
</text>
</g>
<g class="edge">
<path d="M191.14667,143.05882 C256,143.05882,256,292.64313,320.85333,292.64313 L320.85333,295.6549 C256,295.6549,256,146.07059,191.14667,146.07059 z"/>
<text x="256" y="219.35686274509771">
1
</text>
</g>
<g class="edge">
<path d="M325.97333,292.64313 C390.82666,292.64313,390.82666,272.06274,455.68,272.06274 L455.68,275.07452 C390.82666,275.07452,390.82666,295.6549,325.97333,295.6549 z"/>
<text x="390.8266666666667" y="283.8588235294112">
1
</text>
</g>
<g class="edge">
<path d="M56.32,159.62354 C121.17333,159.62354,121.17333,322.76077,186.02667,322.76077 L186.02667,325.77255 C121.17333,325.77255,121.17333,162.6353,56.32,162.6353 z"/>
<text x="121.17333333333335" y="242.69803921568595">
1
</text>
</g>
<g class="edge">
<path d="M191.14667,322.76077 C256,322.76077,256,295.6549,320.85333,295.6549 L320.85333,298.66666 C256,298.66666,256,325.77255,191.14667,325.77255 z"/>
<text x="256" y="310.7137254901955">
1
</text>
</g>
<g class="edge">
<path d="M325.97333,295.6549 C390.82666,295.6549,390.82666,275.07452,455.68,275.07452 L455.68,278.08627 C390.82666,278.08627,390.82666,298.66666,325.97333,298.66666 z"/>
<text x="390.8266666666667" y="286.87058823529355">
1
</text>
</g>
<g class="edge">
<path d="M56.32,162.6353 C121.17333,162.6353,121.17333,86.83922,186.02667,86.83922 L186.02667,89.85098 C121.17333,89.85098,121.17333,165.64706,56.32,165.64706 z"/>
<text x="121.17333333333335" y="126.24313725490192">
1
</text>
</g>
<g class="edge">
<path d="M191.14667,86.83922 C256,86.83922,256,298.66666,320.85333,298.66666 L320.85333,301.67844 C256,301.67844,256,89.85098,191.14667,89.85098 z"/>
<text x="256" y="194.25882352941144">
1
</text>
</g>
<g class="edge">
<path d="M325.97333,298.66666 C390.82666,298.66666,390.82666,278.08627,455.68,278.08627 L455.68,281.09805 C390.82666,281.09805,390.82666,301.67844,325.97333,301.67844 z"/>
<text x="390.8266666666667" y="289.8823529411759">
1
</text>
</g>
<g class="edge">
<path d="M56.32,324.26666 C121.17333,324.26666,121.17333,325.77255,186.02667,325.77255 L186.02667,328.7843 C121.17333,328.7843,121.17333,327.27844,56.32,327.27844 z"/>
<text x="121.17333333333335" y="326.525490196078">
1
</text>
</g>
<g class="edge">
<path d="M191.14667,325.77255 C256,325.77255,256,68.76863,320.85333,68.76863 L320.85333,71.780396 C256,71.780396,256,328.7843,191.14667,328.7843 z"/>
<text x="256" y="198.776470588235">
1
</text>
</g>
<g class="edge">
<path d="M325.97333,68.76863 C390.82666,68.76863,390.82666,281.09805,455.68,281.09805 L455.68,284.1098 C390.82666,284.1098,390.82666,71.780396,325.97333,71.780396 z"/>
<text x="390.8266666666667" y="176.43921568627425">
1
</text>
</g>
<g class="edge">
<path d="M56.32,165.64706 C121.17333,165.64706,121.17333,328.7843,186.02667,328.7843 L186.02667,331.79608 C121.17333,331.79608,121.17333,168.65883,56.32,168.65883 z"/>
<text x="121.17333333333335" y="248.72156862745064">
1
</text>
</g>
<g class="edge">
<path d="M191.14667,328.7843 C256,328.7843,256,301.67844,320.85333,301.67844 L320.85333,304.6902 C256,304.6902,256,331.79608,191.14667,331.79608 z"/>
<text x="256" y="316.73725490196017">
1
</text>
</g>
<g class="edge">
<path d="M325.97333,301.67844 C390.82666,301.67844,390.82666,284.1098,455.68,284.1098 L455.68,287.12158 C390.82666,287.12158,390.82666,304.6902,325.97333,304.6902 z"/>
<text x="390.8266666666667" y="294.3999999999994">
1
</text>
</g>
<g class="edge">
<path d="M56.32,327.27844 C121.17333,327.27844,121.17333,331.79608,186.02667,331.79608 L186.02667,334.80783 C121.17333,334.80783,121.17333,330.2902,56.32,330.2902 z"/>
<text x="121.17333333333335" y="331.0431372549015">
1
</text>
</g>
<g class="edge">
<path d="M191.14667,331.79608 C256,331.79608,256,91.858826,320.85333,91.858826 L320.85333,94.87059 C256,94.87059,256,334.80783,191.14667,334.80783 z"/>
<text x="256" y="213.33333333333303">
1
</text>
</g>
<g class="edge">
<path d="M325.97333,91.858826 C390.82666,91.858826,390.82666,287.12158,455.68,287.12158 L455.68,290.13333 C390.82666,290.13333,390.82666,94.87059,325.97333,94.87059 z"/>
<text x="390.8266666666667" y="190.99607843137227">
1
</text>
</g>
<g class="edge">
<path d="M56.32,330.2902 C121.17333,330.2902,121.17333,89.85098,186.02667,89.85098 L186.02667,92.86275 C121.17333,92.86275,121.17333,333.30197,56.32,333.30197 z"/>
<text x="121.17333333333335" y="211.57647058823517">
1
</text>
</g>
<g class="edge">
<path d="M191.14667,89.85098 C256,89.85098,256,304.6902,320.85333,304.6902 L320.85333,307.70197 C256,307.70197,256,92.86275,191.14667,92.86275 z"/>
<text x="256" y="198.776470588235">
1
</text>
</g>
<g class="edge">
<path d="M325.97333,304.6902 C390.82666,304.6902,390.82666,290.13333,455.68,290.13333 L455.68,293.1451 C390.82666,293.1451,390.82666,307.70197,325.97333,307.70197 z"/>
<text x="390.8266666666667" y="298.9176470588229">
1
</text>
</g>
<g class="edge">
<path d="M56.32,333.30197 C121.17333,333.30197,121.17333,334.80783,186.02667,334.80783 L186.02667,337.8196 C121.17333,337.8196,121.17333,336.31372,56.32,336.31372 z"/>
<text x="121.17333333333335" y="335.56078431372504">
1
</text>
</g>
<g class="edge">
<path d="M191.14667,334.80783 C256,334.80783,256,307.70197,320.85333,307.70197 L320.85333,310.7137 C256,310.7137,256,337.8196,191.14667,337.8196 z"/>
<text x="256" y="322.76078431372486">
1
</text>
</g>
<g class="edge">
<path d="M325.97333,307.70197 C390.82666,307.70197,390.82666,293.1451,455.68,293.1451 L455.68,296.15686 C390.82666,296.15686,390.82666,310.7137,325.97333,310.7137 z"/>
<text x="390.8266666666667" y="301.92941176470526">
1
</text>
</g>
<g class="edge">
<path d="M56.32,168.65883 C121.17333,168.65883,121.17333,92.86275,186.02667,92.86275 L186.02667,95.87451 C121.17333,95.87451,121.17333,171.6706,56.32,171.6706 z"/>
<text x="121.17333333333335" y="132.26666666666662">
1
</text>
</g>
<g class="edge">
<path d="M191.14667,92.86275 C256,92.86275,256,310.7137,320.85333,310.7137 L320.85333,313.7255 C256,313.7255,256,95.87451,191.14667,95.87451 z"/>
<text x="256" y="203.2941176470585">
1
</text>
</g>
<g class="edge">
<path d="M325.97333,310.7137 C390.82666,310.7137,390.82666,296.15686,455.68,296.15686 L455.68,299.16864 C390.82666,299.16864,390.82666,313.7255,325.97333,313.7255 z"/>
<text x="390.8266666666667" y="304.9411764705876">
1
</text>
</g>
<g class="edge">
<path d="M56.32,171.6706 C121.17333,171.6706,121.17333,95.87451,186.02667,95.87451 L186.02667,98.88628 C121.17333,98.88628,121.17333,174.68236,56.32,174.68236 z"/>
<text x="121.17333333333335" y="135.27843137254897">
1
</text>
</g>
<g class="edge">
<path d="M191.14667,95.87451 C256,95.87451,256,313.7255,320.85333,313.7255 L320.85333,316.73724 C256,316.73724,256,98.88628,191.14667,98.88628 z"/>
<text x="256" y="206.30588235294084">
1
</text>
</g>
<g class="edge">
<path d="M325.97333,313.7255 C390.82666,313.7255,390.82666,299.16864,455.68,299.16864 L455.68,302.1804 C390.82666,302.1804,390.82666,316.73724,325.97333,316.73724 z"/>
<text x="390.8266666666667" y="307.95294117646995">
1
</text>
</g>
<g class="edge">
<path d="M56.32,428.6745 C121.17333,428.6745,121.17333,337.8196,186.02667,337.8196 L186.02667,340.83136 C121.17333,340.83136,121.17333,431.68628,56.32,431.68628 z"/>
<text x="121.17333333333335" y="384.75294117647024">
1
</text>
</g>
<g class="edge">
<path d="M191.14667,337.8196 C256,337.8196,256,316.73724,320.85333,316.73724 L320.85333,319.74902 C256,319.74902,256,340.83136,191.14667,340.83136 z"/>
<text x="256" y="328.78431372548954">
1
</text>
</g>
<g class="edge">
<path d="M325.97333,316.73724 C390.82666,316.73724,390.82666,302.1804,455.68,302.1804 L455.68,305.19217 C390.82666,305.19217,390.82666,319.74902,325.97333,319.74902 z"/>
<text x="390.8266666666667" y="310.9647058823523">
1
</text>
</g>
<g class="edge">
<path d="M56.32,336.31372 C121.17333,336.31372,121.17333,98.88628,186.02667,98.88628 L186.02667,101.89804 C121.17333,101.89804,121.17333,339.3255,56.32,339.3255 z"/>
<text x="121.17333333333335" y="219.10588235294102">
1
</text>
</g>
<g class="edge">
<path d="M191.14667,98.88628 C256,98.88628,256,319.74902,320.85333,319.74902 L320.85333,322.76077 C256,322.76077,256,101.89804,191.14667,101.89804 z"/>
<text x="256" y="210.82352941176435">
1
</text>
</g>
<g class="edge">
<path d="M325.97333,319.74902 C390.82666,319.74902,390.82666,305.19217,455.68,305.19217 L455.68,308.20392 C390.82666,308.20392,390.82666,322.76077,325.97333,322.76077 z"/>
<text x="390.8266666666667" y="313.97647058823463">
1
</text>
</g>
<g class="edge">
<path d="M56.32,174.68236 C121.17333,174.68236,121.17333,340.83136,186.02667,340.83136 L186.02667,343.84314 C121.17333,343.84314,121.17333,177.69412,56.32,177.69412 z"/>
<text x="121.17333333333335" y="259.26274509803886">
1
</text>
</g>
<g class="edge">
<path d="M191.14667,340.83136 C256,340.83136,256,322.76077,320.85333,322.76077 L320.85333,325.77255 C256,325.77255,256,343.84314,191.14667,343.84314 z"/>
<text x="256" y="333.30196078431305">
1
</text>
</g>
<g class="edge">
<path d="M325.97333,322.76077 C390.82666,322.76077,390.82666,308.20392,455.68,308.20392 L455.68,311.2157 C390.82666,311.2157,390.82666,325.77255,325.97333,325.77255 z"/>
<text x="390.8266666666667" y="316.988235294117">
1
</text>
</g>
<g class="edge">
<path d="M56.32,177.69412 C121.17333,177.69412,121.17333,343.84314,186.02667,343.84314 L186.02667,346.8549 C121.17333,346.8549,121.17333,180.70589,56.32,180.70589 z"/>
<text x="121.17333333333335" y="262.2745098039212">
1
</text>
</g>
<g class="edge">
<path d="M191.14667,343.84314 C256,343.84314,256,325.77255,320.85333,325.77255 L320.85333,328.7843 C256,328.7843,256,346.8549,191.14667,346.8549 z"/>
<text x="256" y="336.3137254901954">
1
</text>
</g>
<g class="edge">
<path d="M325.97333,325.77255 C390.82666,325.77255,390.82666,311.2157,455.68,311.2157 L455.68,314.22745 C390.82666,314.22745,390.82666,328.7843,325.97333,328.7843 z"/>
<text x="390.8266666666667" y="319.9999999999993">
1
</text>
</g>
<g class="edge">
<path d="M56.32,339.3255 C121.17333,339.3255,121.17333,101.89804,186.02667,101.89804 L186.02667,104.909805 C121.17333,104.909805,121.17333,342.33725,56.32,342.33725 z"/>
<text x="121.17333333333335" y="222.1176470588234">
1
</text>
</g>
<g class="edge">
<path d="M191.14667,101.89804 C256,101.89804,256,328.7843,320.85333,328.7843 L320.85333,331.79608 C256,331.79608,256,104.909805,191.14667,104.909805 z"/>
<text x="256" y="216.84705882352904">
1
</text>
</g>
<g class="edge">
<path d="M325.97333,328.7843 C390.82666,328.7843,390.82666,314.22745,455.68,314.22745 L455.68,317.23923 C390.82666,317.23923,390.82666,331.79608,325.97333,331.79608 z"/>
<text x="390.8266666666667" y="323.01176470588166">
1
</text>
</g>
<g class="edge">
<path d="M56.32,180.70589 C121.17333,180.70589,121.17333,346.8549,186.02667,346.8549 L186.02667,349.86667 C121.17333,349.86667,121.17333,183.71765,56.32,183.71765 z"/>
<text x="121.17333333333335" y="265.28627450980355">
1
</text>
</g>
<g class="edge">
<path d="M191.14667,346.8549 C256,346.8549,256,331.79608,320.85333,331.79608 L320.85333,334.80783 C256,334.80783,256,349.86667,191.14667,349.86667 z"/>
<text x="256" y="340.8313725490189">
1
</text>
</g>
<g class="edge">
<path d="M325.97333,331.79608 C390.82666,331.79608,390.82666,317.23923,455.68,317.23923 L455.68,320.25098 C390.82666,320.25098,390.82666,334.80783,325.97333,334.80783 z"/>
<text x="390.8266666666667" y="326.023529411764">
1
</text>
</g>
<g class="edge">
<path d="M56.32,183.71765 C121.17333,183.71765,121.17333,349.86667,186.02667,349.86667 L186.02667,352.87842 C121.17333,352.87842,121.17333,186.72942,56.32,186.72942 z"/>
<text x="121.17333333333335" y="268.2980392156859">
1
</text>
</g>
<g class="edge">
<path d="M191.14667,349.86667 C256,349.86667,256,334.80783,320.85333,334.80783 L320.85333,337.8196 C256,337.8196,256,352.87842,191.14667,352.87842 z"/>
<text x="256" y="343.84313725490125">
1
</text>
</g>
<g class="edge">
<path d="M325.97333,334.80783 C390.82666,334.80783,390.82666,320.25098,455.68,320.25098 L455.68,323.26276 C390.82666,323.26276,390.82666,337.8196,325.97333,337.8196 z"/>
<text x="390.8266666666667" y="329.03529411764634">
1
</text>
</g>
<g class="edge">
<path d="M56.32,342.33725 C121.17333,342.33725,121.17333,352.87842,186.02667,352.87842 L186.02667,355.8902 C121.17333,355.8902,121.17333,345.34903,56.32,345.34903 z"/>
<text x="121.17333333333335" y="349.1137254901956">
1
</text>
</g>
<g class="edge">
<path d="M191.14667,352.87842 C256,352.87842,256,337.8196,320.85333,337.8196 L320.85333,340.83136 C256,340.83136,256,355.8902,191.14667,355.8902 z"/>
<text x="256" y="346.8549019607836">
1
</text>
</g>
<g class="edge">
<path d="M325.97333,337.8196 C390.82666,337.8196,390.82666,323.26276,455.68,323.26276 L455.68,326.2745 C390.82666,326.2745,390.82666,340.83136,325.97333,340.83136 z"/>
<text x="390.8266666666667" y="332.0470588235287">
1
</text>
</g>
<g class="edge">
<path d="M56.32,431.68628 C121.17333,431.68628,121.17333,355.8902,186.02667,355.8902 L186.02667,358.90195 C121.17333,358.90195,121.17333,434.69803,56.32,434.69803 z"/>
<text x="121.17333333333335" y="395.29411764705844">
1
</text>
</g>
<g class="edge">
<path d="M191.14667,355.8902 C256,355.8902,256,340.83136,320.85333,340.83136 L320.85333,343.84314 C256,343.84314,256,358.90195,191.14667,358.90195 z"/>
<text x="256" y="349.86666666666594">
1
</text>
</g>
<g class="edge">
<path d="M325.97333,340.83136 C390.82666,340.83136,390.82666,326.2745,455.68,326.2745 L455.68,329.2863 C390.82666,329.2863,390.82666,343.84314,325.97333,343.84314 z"/>
<text x="390.8266666666667" y="335.05882352941103">
1
</text>
</g>
<g class="edge">
<path d="M56.32,345.34903 C121.17333,345.34903,121.17333,358.90195,186.02667,358.90195 L186.02667,361.91373 C121.17333,361.91373,121.17333,348.36078,56.32,348.36078 z"/>
<text x="121.17333333333335" y="353.6313725490191">
1
</text>
</g>
<g class="edge">
<path d="M191.14667,358.90195 C256,358.90195,256,343.84314,320.85333,343.84314 L320.85333,346.8549 C256,346.8549,256,361.91373,191.14667,361.91373 z"/>
<text x="256" y="352.8784313725483">
1
</text>
</g>
<g class="edge">
<path d="M325.97333,343.84314 C390.82666,343.84314,390.82666,329.2863,455.68,329.2863 L455.68,332.29803 C390.82666,332.29803,390.82666,346.8549,325.97333,346.8549 z"/>
<text x="390.8266666666667" y="338.07058823529337">
1
</text>
</g>
<g class="edge">
<path d="M56.32,186.72942 C121.17333,186.72942,121.17333,361.91373,186.02667,361.91373 L186.02667,364.92548 C121.17333,364.92548,121.17333,189.74118,56.32,189.74118 z"/>
<text x="121.17333333333335" y="275.82745098039175">
1
</text>
</g>
<g class="edge">
<path d="M191.14667,361.91373 C256,361.91373,256,71.780396,320.85333,71.780396 L320.85333,74.79216 C256,74.79216,256,364.92548,191.14667,364.92548 z"/>
<text x="256" y="218.35294117647024">
1
</text>
</g>
<g class="edge">
<path d="M325.97333,71.780396 C390.82666,71.780396,390.82666,332.29803,455.68,332.29803 L455.68,335.3098 C390.82666,335.3098,390.82666,74.79216,325.97333,74.79216 z"/>
<text x="390.8266666666667" y="203.54509803921536">
1
</text>
</g>
<g class="edge">
<path d="M56.32,189.74118 C121.17333,189.74118,121.17333,364.92548,186.02667,364.92548 L186.02667,367.93726 C121.17333,367.93726,121.17333,192.75294,56.32,192.75294 z"/>
<text x="121.17333333333335" y="278.8392156862741">
1
</text>
</g>
<g class="edge">
<path d="M191.14667,364.92548 C256,364.92548,256,346.8549,320.85333,346.8549 L320.85333,349.86667 C256,349.86667,256,367.93726,191.14667,367.93726 z"/>
<text x="256" y="357.3960784313718">
1
</text>
</g>
<g class="edge">
<path d="M325.97333,346.8549 C390.82666,346.8549,390.82666,335.3098,455.68,335.3098 L455.68,338.32156 C390.82666,338.32156,390.82666,349.86667,325.97333,349.86667 z"/>
<text x="390.8266666666667" y="342.5882352941169">
1
</text>
</g>
<g class="edge">
<path d="M56.32,348.36078 C121.17333,348.36078,121.17333,104.909805,186.02667,104.909805 L186.02667,107.92157 C121.17333,107.92157,121.17333,351.37256,56.32,351.37256 z"/>
<text x="121.17333333333335" y="228.14117647058808">
1
</text>
</g>
<g class="edge">
<path d="M191.14667,104.909805 C256,104.909805,256,349.86667,320.85333,349.86667 L320.85333,352.87842 C256,352.87842,256,107.92157,191.14667,107.92157 z"/>
<text x="256" y="228.89411764705844">
1
</text>
</g>
<g class="edge">
<path d="M325.97333,349.86667 C390.82666,349.86667,390.82666,338.32156,455.68,338.32156 L455.68,341.33334 C390.82666,341.33334,390.82666,352.87842,325.97333,352.87842 z"/>
<text x="390.8266666666667" y="345.5999999999992">
1
</text>
</g>
<g class="edge">
<path d="M56.32,351.37256 C121.17333,351.37256,121.17333,367.93726,186.02667,367.93726 L186.02667,370.949 C121.17333,370.949,121.17333,354.3843,56.32,354.3843 z"/>
<text x="121.17333333333335" y="361.16078431372495">
1
</text>
</g>
<g class="edge">
<path d="M191.14667,367.93726 C256,367.93726,256,352.87842,320.85333,352.87842 L320.85333,355.8902 C256,355.8902,256,370.949,191.14667,370.949 z"/>
<text x="256" y="361.9137254901953">
1
</text>
</g>
<g class="edge">
<path d="M325.97333,352.87842 C390.82666,352.87842,390.82666,341.33334,455.68,341.33334 L455.68,344.3451 C390.82666,344.3451,390.82666,355.8902,325.97333,355.8902 z"/>
<text x="390.8266666666667" y="348.61176470588157">
1
</text>
</g>
<g class="edge">
<path d="M56.32,192.75294 C121.17333,192.75294,121.17333,370.949,186.02667,370.949 L186.02667,373.9608 C121.17333,373.9608,121.17333,195.76471,56.32,195.76471 z"/>
<text x="121.17333333333335" y="283.3568627450976">
1
</text>
</g>
<g class="edge">
<path d="M191.14667,370.949 C256,370.949,256,355.8902,320.85333,355.8902 L320.85333,358.90195 C256,358.90195,256,373.9608,191.14667,373.9608 z"/>
<text x="256" y="364.92549019607765">
1
</text>
</g>
<g class="edge">
<path d="M325.97333,355.8902 C390.82666,355.8902,390.82666,344.3451,455.68,344.3451 L455.68,347.35687 C390.82666,347.35687,390.82666,358.90195,325.97333,358.90195 z"/>
<text x="390.8266666666667" y="351.6235294117639">
1
</text>
</g>
<g class="edge">
<path d="M56.32,195.76471 C121.17333,195.76471,121.17333,373.9608,186.02667,373.9608 L186.02667,376.97253 C121.17333,376.97253,121.17333,198.77647,56.32,198.77647 z"/>
<text x="121.17333333333335" y="286.36862745097994">
1
</text>
</g>
<g class="edge">
<path d="M191.14667,373.9608 C256,373.9608,256,358.90195,320.85333,358.90195 L320.85333,361.91373 C256,361.91373,256,376.97253,191.14667,376.97253 z"/>
<text x="256" y="367.93725490196">
1
</text>
</g>
<g class="edge">
<path d="M325.97333,358.90195 C390.82666,358.90195,390.82666,347.35687,455.68,347.35687 L455.68,350.36862 C390.82666,350.36862,390.82666,361.91373,325.97333,361.91373 z"/>
<text x="390.8266666666667" y="354.63529411764625">
1
</text>
</g>
<g class="edge">
<path d="M56.32,354.3843 C121.17333,354.3843,121.17333,376.97253,186.02667,376.97253 L186.02667,379.9843 C121.17333,379.9843,121.17333,357.3961,56.32,357.3961 z"/>
<text x="121.17333333333335" y="367.18431372548963">
1
</text>
</g>
<g class="edge">
<path d="M191.14667,376.97253 C256,376.97253,256,361.91373,320.85333,361.91373 L320.85333,364.92548 C256,364.92548,256,379.9843,191.14667,379.9843 z"/>
<text x="256" y="370.94901960784233">
1
</text>
</g>
<g class="edge">
<path d="M325.97333,361.91373 C390.82666,361.91373,390.82666,350.36862,455.68,350.36862 L455.68,353.3804 C390.82666,353.3804,390.82666,364.92548,325.97333,364.92548 z"/>
<text x="390.8266666666667" y="357.6470588235286">
1
</text>
</g>
<g class="edge">
<path d="M56.32,357.3961 C121.17333,357.3961,121.17333,379.9843,186.02667,379.9843 L186.02667,382.99606 C121.17333,382.99606,121.17333,360.40784,56.32,360.40784 z"/>
<text x="121.17333333333335" y="370.196078431372">
1
</text>
</g>
<g class="edge">
<path d="M191.14667,379.9843 C256,379.9843,256,364.92548,320.85333,364.92548 L320.85333,367.93726 C256,367.93726,256,382.99606,191.14667,382.99606 z"/>
<text x="256" y="373.9607843137247">
1
</text>
</g>
<g class="edge">
<path d="M325.97333,364.92548 C390.82666,364.92548,390.82666,353.3804,455.68,353.3804 L455.68,356.39215 C390.82666,356.39215,390.82666,367.93726,325.97333,367.93726 z"/>
<text x="390.8266666666667" y="360.65882352941094">
1
</text>
</g>
<g class="edge">
<path d="M56.32,198.77647 C121.17333,198.77647,121.17333,382.99606,186.02667,382.99606 L186.02667,386.00784 C121.17333,386.00784,121.17333,201.78824,56.32,201.78824 z"/>
<text x="121.17333333333335" y="292.3921568627446">
1
</text>
</g>
<g class="edge">
<path d="M191.14667,382.99606 C256,382.99606,256,367.93726,320.85333,367.93726 L320.85333,370.949 C256,370.949,256,386.00784,191.14667,386.00784 z"/>
<text x="256" y="376.972549019607">
1
</text>
</g>
<g class="edge">
<path d="M325.97333,367.93726 C390.82666,367.93726,390.82666,356.39215,455.68,356.39215 L455.68,359.40393 C390.82666,359.40393,390.82666,370.949,325.97333,370.949 z"/>
<text x="390.8266666666667" y="363.6705882352933">
1
</text>
</g>
<g class="edge">
<path d="M56.32,201.78824 C121.17333,201.78824,121.17333,386.00784,186.02667,386.00784 L186.02667,389.01962 C121.17333,389.01962,121.17333,204.8,56.32,204.8 z"/>
<text x="121.17333333333335" y="295.40392156862697">
1
</text>
</g>
<g class="edge">
<path d="M191.14667,386.00784 C256,386.00784,256,370.949,320.85333,370.949 L320.85333,373.9608 C256,373.9608,256,389.01962,191.14667,389.01962 z"/>
<text x="256" y="379.98431372548936">
1
</text>
</g>
<g class="edge">
<path d="M325.97333,370.949 C390.82666,370.949,390.82666,359.40393,455.68,359.40393 L455.68,362.41568 C390.82666,362.41568,390.82666,373.9608,325.97333,373.9608 z"/>
<text x="390.8266666666667" y="366.6823529411756">
1
</text>
</g>
<g class="edge">
<path d="M56.32,360.40784 C121.17333,360.40784,121.17333,146.07059,186.02667,146.07059 L186.02667,149.08235 C121.17333,149.08235,121.17333,363.41962,56.32,363.41962 z"/>
<text x="121.17333333333335" y="254.74509803921546">
1
</text>
</g>
<g class="edge">
<path d="M191.14667,146.07059 C256,146.07059,256,373.9608,320.85333,373.9608 L320.85333,376.97253 C256,376.97253,256,149.08235,191.14667,149.08235 z"/>
<text x="256" y="261.5215686274505">
1
</text>
</g>
<g class="edge">
<path d="M325.97333,373.9608 C390.82666,373.9608,390.82666,362.41568,455.68,362.41568 L455.68,365.42746 C390.82666,365.42746,390.82666,376.97253,325.97333,376.97253 z"/>
<text x="390.8266666666667" y="369.69411764705796">
1
</text>
</g>
<g class="edge">
<path d="M56.32,204.8 C121.17333,204.8,121.17333,389.01962,186.02667,389.01962 L186.02667,392.03137 C121.17333,392.03137,121.17333,207.81177,56.32,207.81177 z"/>
<text x="121.17333333333335" y="298.4156862745093">
1
</text>
</g>
<g class="edge">
<path d="M191.14667,389.01962 C256,389.01962,256,376.97253,320.85333,376.97253 L320.85333,379.9843 C256,379.9843,256,392.03137,191.14667,392.03137 z"/>
<text x="256" y="384.50196078431287">
1
</text>
</g>
<g class="edge">
<path d="M325.97333,376.97253 C390.82666,376.97253,390.82666,365.42746,455.68,365.42746 L455.68,368.4392 C390.82666,368.4392,390.82666,379.9843,325.97333,379.9843 z"/>
<text x="390.8266666666667" y="372.7058823529403">
1
</text>
</g>
<g class="edge">
<path d="M56.32,363.41962 C121.17333,363.41962,121.17333,392.03137,186.02667,392.03137 L186.02667,395.04315 C121.17333,395.04315,121.17333,366.43137,56.32,366.43137 z"/>
<text x="121.17333333333335" y="379.231372549019">
1
</text>
</g>
<g class="edge">
<path d="M191.14667,392.03137 C256,392.03137,256,379.9843,320.85333,379.9843 L320.85333,382.99606 C256,382.99606,256,395.04315,191.14667,395.04315 z"/>
<text x="256" y="387.5137254901952">
1
</text>
</g>
<g class="edge">
<path d="M325.97333,379.9843 C390.82666,379.9843,390.82666,368.4392,455.68,368.4392 L455.68,371.451 C390.82666,371.451,390.82666,382.99606,325.97333,382.99606 z"/>
<text x="390.8266666666667" y="375.71764705882265">
1
</text>
</g>
<g class="edge">
<path d="M56.32,207.81177 C121.17333,207.81177,121.17333,395.04315,186.02667,395.04315 L186.02667,398.0549 C121.17333,398.0549,121.17333,210.82353,56.32,210.82353 z"/>
<text x="121.17333333333335" y="302.9333333333328">
1
</text>
</g>
<g class="edge">
<path d="M191.14667,395.04315 C256,395.04315,256,382.99606,320.85333,382.99606 L320.85333,386.00784 C256,386.00784,256,398.0549,191.14667,398.0549 z"/>
<text x="256" y="390.52549019607756">
1
</text>
</g>
<g class="edge">
<path d="M325.97333,382.99606 C390.82666,382.99606,390.82666,371.451,455.68,371.451 L455.68,374.46274 C390.82666,374.46274,390.82666,386.00784,325.97333,386.00784 z"/>
<text x="390.8266666666667" y="378.729411764705">
1
</text>
</g>
<g class="edge">
<path d="M56.32,210.82353 C121.17333,210.82353,121.17333,398.0549,186.02667,398.0549 L186.02667,401.06668 C121.17333,401.06668,121.17333,213.8353,56.32,213.8353 z"/>
<text x="121.17333333333335" y="305.94509803921517">
1
</text>
</g>
<g class="edge">
<path d="M191.14667,398.0549 C256,398.0549,256,94.87059,320.85333,94.87059 L320.85333,97.882355 C256,97.882355,256,401.06668,191.14667,401.06668 z"/>
<text x="256" y="247.96862745097997">
1
</text>
</g>
<g class="edge">
<path d="M325.97333,94.87059 C390.82666,94.87059,390.82666,374.46274,455.68,374.46274 L455.68,377.47452 C390.82666,377.47452,390.82666,97.882355,325.97333,97.882355 z"/>
<text x="390.8266666666667" y="236.17254901960743">
1
</text>
</g>
<g class="edge">
<path d="M56.32,366.43137 C121.17333,366.43137,121.17333,401.06668,186.02667,401.06668 L186.02667,404.07843 C121.17333,404.07843,121.17333,369.44315,56.32,369.44315 z"/>
<text x="121.17333333333335" y="385.2549019607837">
1
</text>
</g>
<g class="edge">
<path d="M191.14667,401.06668 C256,401.06668,256,386.00784,320.85333,386.00784 L320.85333,389.01962 C256,389.01962,256,404.07843,191.14667,404.07843 z"/>
<text x="256" y="395.04313725490107">
1
</text>
</g>
<g class="edge">
<path d="M325.97333,386.00784 C390.82666,386.00784,390.82666,377.47452,455.68,377.47452 L455.68,380.48627 C390.82666,380.48627,390.82666,389.01962,325.97333,389.01962 z"/>
<text x="390.8266666666667" y="383.2470588235285">
1
</text>
</g>
<g class="edge">
<path d="M56.32,213.8353 C121.17333,213.8353,121.17333,107.92157,186.02667,107.92157 L186.02667,110.933334 C121.17333,110.933334,121.17333,216.84706,56.32,216.84706 z"/>
<text x="121.17333333333335" y="162.38431372549007">
1
</text>
</g>
<g class="edge">
<path d="M191.14667,107.92157 C256,107.92157,256,389.01962,320.85333,389.01962 L320.85333,392.03137 C256,392.03137,256,110.933334,191.14667,110.933334 z"/>
<text x="256" y="249.97647058823483">
1
</text>
</g>
<g class="edge">
<path d="M325.97333,389.01962 C390.82666,389.01962,390.82666,380.48627,455.68,380.48627 L455.68,383.49805 C390.82666,383.49805,390.82666,392.03137,325.97333,392.03137 z"/>
<text x="390.8266666666667" y="386.25882352941085">
1
</text>
</g>
<g class="edge">
<path d="M56.32,369.44315 C121.17333,369.44315,121.17333,404.07843,186.02667,404.07843 L186.02667,407.0902 C121.17333,407.0902,121.17333,372.4549,56.32,372.4549 z"/>
<text x="121.17333333333335" y="388.266666666666">
1
</text>
</g>
<g class="edge">
<path d="M191.14667,404.07843 C256,404.07843,256,392.03137,320.85333,392.03137 L320.85333,395.04315 C256,395.04315,256,407.0902,191.14667,407.0902 z"/>
<text x="256" y="399.5607843137246">
1
</text>
</g>
<g class="edge">
<path d="M325.97333,392.03137 C390.82666,392.03137,390.82666,383.49805,455.68,383.49805 L455.68,386.5098 C390.82666,386.5098,390.82666,395.04315,325.97333,395.04315 z"/>
<text x="390.8266666666667" y="389.2705882352932">
1
</text>
</g>
<g class="edge">
<path d="M56.32,216.84706 C121.17333,216.84706,121.17333,407.0902,186.02667,407.0902 L186.02667,410.10196 C121.17333,410.10196,121.17333,219.85883,56.32,219.85883 z"/>
<text x="121.17333333333335" y="313.474509803921">
1
</text>
</g>
<g class="edge">
<path d="M191.14667,407.0902 C256,407.0902,256,395.04315,320.85333,395.04315 L320.85333,398.0549 C256,398.0549,256,410.10196,191.14667,410.10196 z"/>
<text x="256" y="402.5725490196069">
1
</text>
</g>
<g class="edge">
<path d="M325.97333,395.04315 C390.82666,395.04315,390.82666,386.5098,455.68,386.5098 L455.68,389.52158 C390.82666,389.52158,390.82666,398.0549,325.97333,398.0549 z"/>
<text x="390.8266666666667" y="392.28235294117553">
1
</text>
</g>
<g class="edge">
<path d="M56.32,219.85883 C121.17333,219.85883,121.17333,110.933334,186.02667,110.933334 L186.02667,113.9451 C121.17333,113.9451,121.17333,222.87059,56.32,222.87059 z"/>
<text x="121.17333333333335" y="166.9019607843136">
1
</text>
</g>
<g class="edge">
<path d="M191.14667,110.933334 C256,110.933334,256,398.0549,320.85333,398.0549 L320.85333,401.06668 C256,401.06668,256,113.9451,191.14667,113.9451 z"/>
<text x="256" y="255.99999999999952">
1
</text>
</g>
<g class="edge">
<path d="M325.97333,398.0549 C390.82666,398.0549,390.82666,389.52158,455.68,389.52158 L455.68,392.53333 C390.82666,392.53333,390.82666,401.06668,325.97333,401.06668 z"/>
<text x="390.8266666666667" y="395.2941176470579">
1
</text>
</g>
<g class="edge">
<path d="M56.32,222.87059 C121.17333,222.87059,121.17333,410.10196,186.02667,410.10196 L186.02667,413.11374 C121.17333,413.11374,121.17333,225.88235,56.32,225.88235 z"/>
<text x="121.17333333333335" y="317.99215686274454">
1
</text>
</g>
<g class="edge">
<path d="M191.14667,410.10196 C256,410.10196,256,401.06668,320.85333,401.06668 L320.85333,404.07843 C256,404.07843,256,413.11374,191.14667,413.11374 z"/>
<text x="256" y="407.09019607843044">
1
</text>
</g>
<g class="edge">
<path d="M325.97333,401.06668 C390.82666,401.06668,390.82666,392.53333,455.68,392.53333 L455.68,395.5451 C390.82666,395.5451,390.82666,404.07843,325.97333,404.07843 z"/>
<text x="390.8266666666667" y="398.3058823529402">
1
</text>
</g>
<g class="edge">
<path d="M56.32,372.4549 C121.17333,372.4549,121.17333,413.11374,186.02667,413.11374 L186.02667,416.1255 C121.17333,416.1255,121.17333,375.46667,56.32,375.46667 z"/>
<text x="121.17333333333335" y="394.2901960784307">
1
</text>
</g>
<g class="edge">
<path d="M191.14667,413.11374 C256,413.11374,256,404.07843,320.85333,404.07843 L320.85333,407.0902 C256,407.0902,256,416.1255,191.14667,416.1255 z"/>
<text x="256" y="410.1019607843128">
1
</text>
</g>
<g class="edge">
<path d="M325.97333,404.07843 C390.82666,404.07843,390.82666,395.5451,455.68,395.5451 L455.68,398.55685 C390.82666,398.55685,390.82666,407.0902,325.97333,407.0902 z"/>
<text x="390.8266666666667" y="401.31764705882256">
1
</text>
</g>
<g class="edge">
<path d="M56.32,225.88235 C121.17333,225.88235,121.17333,416.1255,186.02667,416.1255 L186.02667,419.13727 C121.17333,419.13727,121.17333,228.89412,56.32,228.89412 z"/>
<text x="121.17333333333335" y="322.50980392156805">
1
</text>
</g>
<g class="edge">
<path d="M191.14667,416.1255 C256,416.1255,256,407.0902,320.85333,407.0902 L320.85333,410.10196 C256,410.10196,256,419.13727,191.14667,419.13727 z"/>
<text x="256" y="413.1137254901951">
1
</text>
</g>
<g class="edge">
<path d="M325.97333,407.0902 C390.82666,407.0902,390.82666,398.55685,455.68,398.55685 L455.68,401.56863 C390.82666,401.56863,390.82666,410.10196,325.97333,410.10196 z"/>
<text x="390.8266666666667" y="404.3294117647049">
1
</text>
</g>
<g class="edge">
<path d="M56.32,375.46667 C121.17333,375.46667,121.17333,113.9451,186.02667,113.9451 L186.02667,116.95686 C121.17333,116.95686,121.17333,378.47842,56.32,378.47842 z"/>
<text x="121.17333333333335" y="246.21176470588216">
1
</text>
</g>
<g class="edge">
<path d="M191.14667,113.9451 C256,113.9451,256,410.10196,320.85333,410.10196 L320.85333,413.11374 C256,413.11374,256,116.95686,191.14667,116.95686 z"/>
<text x="256" y="263.5294117647054">
1
</text>
</g>
<g class="edge">
<path d="M325.97333,410.10196 C390.82666,410.10196,390.82666,401.56863,455.68,401.56863 L455.68,404.58038 C390.82666,404.58038,390.82666,413.11374,325.97333,413.11374 z"/>
<text x="390.8266666666667" y="407.34117647058724">
1
</text>
</g>
<g class="edge">
<path d="M56.32,228.89412 C121.17333,228.89412,121.17333,419.13727,186.02667,419.13727 L186.02667,422.14902 C121.17333,422.14902,121.17333,231.90588,56.32,231.90588 z"/>
<text x="121.17333333333335" y="325.5215686274504">
1
</text>
</g>
<g class="edge">
<path d="M191.14667,419.13727 C256,419.13727,256,413.11374,320.85333,413.11374 L320.85333,416.1255 C256,416.1255,256,422.14902,191.14667,422.14902 z"/>
<text x="256" y="417.63137254901864">
1
</text>
</g>
<g class="edge">
<path d="M325.97333,413.11374 C390.82666,413.11374,390.82666,404.58038,455.68,404.58038 L455.68,407.59216 C390.82666,407.59216,390.82666,416.1255,325.97333,416.1255 z"/>
<text x="390.8266666666667" y="410.3529411764696">
1
</text>
</g>
<g class="edge">
<path d="M56.32,378.47842 C121.17333,378.47842,121.17333,422.14902,186.02667,422.14902 L186.02667,425.1608 C121.17333,425.1608,121.17333,381.4902,56.32,381.4902 z"/>
<text x="121.17333333333335" y="401.81960784313657">
1
</text>
</g>
<g class="edge">
<path d="M191.14667,422.14902 C256,422.14902,256,416.1255,320.85333,416.1255 L320.85333,419.13727 C256,419.13727,256,425.1608,191.14667,425.1608 z"/>
<text x="256" y="420.643137254901">
1
</text>
</g>
<g class="edge">
<path d="M325.97333,416.1255 C390.82666,416.1255,390.82666,407.59216,455.68,407.59216 L455.68,410.6039 C390.82666,410.6039,390.82666,419.13727,325.97333,419.13727 z"/>
<text x="390.8266666666667" y="413.3647058823519">
1
</text>
</g>
<g class="edge">
<path d="M56.32,231.90588 C121.17333,231.90588,121.17333,425.1608,186.02667,425.1608 L186.02667,428.17255 C121.17333,428.17255,121.17333,234.91765,56.32,234.91765 z"/>
<text x="121.17333333333335" y="330.0392156862739">
1
</text>
</g>
<g class="edge">
<path d="M191.14667,425.1608 C256,425.1608,256,419.13727,320.85333,419.13727 L320.85333,422.14902 C256,422.14902,256,428.17255,191.14667,428.17255 z"/>
<text x="256" y="423.6549019607833">
1
</text>
</g>
<g class="edge">
<path d="M325.97333,419.13727 C390.82666,419.13727,390.82666,410.6039,455.68,410.6039 L455.68,413.6157 C390.82666,413.6157,390.82666,422.14902,325.97333,422.14902 z"/>
<text x="390.8266666666667" y="416.37647058823427">
1
</text>
</g>
<g class="edge">
<path d="M56.32,234.91765 C121.17333,234.91765,121.17333,428.17255,186.02667,428.17255 L186.02667,431.18433 C121.17333,431.18433,121.17333,237.92941,56.32,237.92941 z"/>
<text x="121.17333333333335" y="333.05098039215625">
1
</text>
</g>
<g class="edge">
<path d="M191.14667,428.17255 C256,428.17255,256,422.14902,320.85333,422.14902 L320.85333,425.1608 C256,425.1608,256,431.18433,191.14667,431.18433 z"/>
<text x="256" y="426.66666666666566">
1
</text>
</g>
<g class="edge">
<path d="M325.97333,422.14902 C390.82666,422.14902,390.82666,413.6157,455.68,413.6157 L455.68,416.62744 C390.82666,416.62744,390.82666,425.1608,325.97333,425.1608 z"/>
<text x="390.8266666666667" y="419.3882352941166">
1
</text>
</g>
<g class="edge">
<path d="M56.32,381.4902 C121.17333,381.4902,121.17333,116.95686,186.02667,116.95686 L186.02667,119.96863 C121.17333,119.96863,121.17333,384.50195,56.32,384.50195 z"/>
<text x="121.17333333333335" y="250.72941176470567">
1
</text>
</g>
<g class="edge">
<path d="M191.14667,116.95686 C256,116.95686,256,425.1608,320.85333,425.1608 L320.85333,428.17255 C256,428.17255,256,119.96863,191.14667,119.96863 z"/>
<text x="256" y="272.5647058823524">
1
</text>
</g>
<g class="edge">
<path d="M325.97333,425.1608 C390.82666,425.1608,390.82666,416.62744,455.68,416.62744 L455.68,419.63922 C390.82666,419.63922,390.82666,428.17255,325.97333,428.17255 z"/>
<text x="390.8266666666667" y="422.39999999999895">
1
</text>
</g>
<g class="edge">
<path d="M56.32,384.50195 C121.17333,384.50195,121.17333,431.18433,186.02667,431.18433 L186.02667,434.19608 C121.17333,434.19608,121.17333,387.51373,56.32,387.51373 z"/>
<text x="121.17333333333335" y="409.3490196078424">
1
</text>
</g>
<g class="edge">
<path d="M191.14667,431.18433 C256,431.18433,256,428.17255,320.85333,428.17255 L320.85333,431.18433 C256,431.18433,256,434.19608,191.14667,434.19608 z"/>
<text x="256" y="431.1843137254892">
1
</text>
</g>
<g class="edge">
<path d="M325.97333,428.17255 C390.82666,428.17255,390.82666,419.63922,455.68,419.63922 L455.68,422.65097 C390.82666,422.65097,390.82666,431.18433,325.97333,431.18433 z"/>
<text x="390.8266666666667" y="425.4117647058813">
1
</text>
</g>
<g class="edge">
<path d="M56.32,237.92941 C121.17333,237.92941,121.17333,119.96863,186.02667,119.96863 L186.02667,122.98039 C121.17333,122.98039,121.17333,240.94118,56.32,240.94118 z"/>
<text x="121.17333333333335" y="180.45490196078416">
1
</text>
</g>
<g class="edge">
<path d="M191.14667,119.96863 C256,119.96863,256,431.18433,320.85333,431.18433 L320.85333,434.19608 C256,434.19608,256,122.98039,191.14667,122.98039 z"/>
<text x="256" y="277.08235294117594">
1
</text>
</g>
<g class="edge">
<path d="M325.97333,431.18433 C390.82666,431.18433,390.82666,422.65097,455.68,422.65097 L455.68,425.66275 C390.82666,425.66275,390.82666,434.19608,325.97333,434.19608 z"/>
<text x="390.8266666666667" y="428.42352941176364">
1
</text>
</g>
<g class="edge">
<path d="M56.32,240.94118 C121.17333,240.94118,121.17333,434.19608,186.02667,434.19608 L186.02667,437.20786 C121.17333,437.20786,121.17333,243.95294,56.32,243.95294 z"/>
<text x="121.17333333333335" y="339.07450980392093">
1
</text>
</g>
<g class="edge">
<path d="M191.14667,434.19608 C256,434.19608,256,434.19608,320.85333,434.19608 L320.85333,437.20786 C256,437.20786,256,437.20786,191.14667,437.20786 z"/>
<text x="256" y="435.7019607843127">
1
</text>
</g>
<g class="edge">
<path d="M325.97333,434.19608 C390.82666,434.19608,390.82666,425.66275,455.68,425.66275 L455.68,428.6745 C390.82666,428.6745,390.82666,437.20786,325.97333,437.20786 z"/>
<text x="390.8266666666667" y="431.435294117646">
1
</text>
</g>
<g class="edge">
<path d="M56.32,434.69803 C121.17333,434.69803,121.17333,437.20786,186.02667,437.20786 L186.02667,440.2196 C121.17333,440.2196,121.17333,437.7098,56.32,437.7098 z"/>
<text x="121.17333333333335" y="437.45882352941123">
1
</text>
</g>
<g class="edge">
<path d="M191.14667,437.20786 C256,437.20786,256,437.20786,320.85333,437.20786 L320.85333,440.2196 C256,440.2196,256,440.2196,191.14667,440.2196 z"/>
<text x="256" y="438.71372549019503">
1
</text>
</g>
<g class="edge">
<path d="M325.97333,437.20786 C390.82666,437.20786,390.82666,428.6745,455.68,428.6745 L455.68,431.68628 C390.82666,431.68628,390.82666,440.2196,325.97333,440.2196 z"/>
<text x="390.8266666666667" y="434.4470588235283">
1
</text>
</g>
<g class="edge">
<path d="M56.32,437.7098 C121.17333,437.7098,121.17333,440.2196,186.02667,440.2196 L186.02667,443.23138 C121.17333,443.23138,121.17333,440.72156,56.32,440.72156 z"/>
<text x="121.17333333333335" y="440.4705882352936">
1
</text>
</g>
<g class="edge">
<path d="M191.14667,440.2196 C256,440.2196,256,440.2196,320.85333,440.2196 L320.85333,443.23138 C256,443.23138,256,443.23138,191.14667,443.23138 z"/>
<text x="256" y="441.7254901960774">
1
</text>
</g>
<g class="edge">
<path d="M325.97333,440.2196 C390.82666,440.2196,390.82666,431.68628,455.68,431.68628 L455.68,434.69803 C390.82666,434.69803,390.82666,443.23138,325.97333,443.23138 z"/>
<text x="390.8266666666667" y="437.45882352941067">
1
</text>
</g>
<g class="edge">
<path d="M56.32,243.95294 C121.17333,243.95294,121.17333,443.23138,186.02667,443.23138 L186.02667,446.24313 C121.17333,446.24313,121.17333,246.9647,56.32,246.9647 z"/>
<text x="121.17333333333335" y="345.0980392156856">
1
</text>
</g>
<g class="edge">
<path d="M191.14667,443.23138 C256,443.23138,256,443.23138,320.85333,443.23138 L320.85333,446.24313 C256,446.24313,256,446.24313,191.14667,446.24313 z"/>
<text x="256" y="444.7372549019597">
1
</text>
</g>
<g class="edge">
<path d="M325.97333,443.23138 C390.82666,443.23138,390.82666,434.69803,455.68,434.69803 L455.68,437.7098 C390.82666,437.7098,390.82666,446.24313,325.97333,446.24313 z"/>
<text x="390.8266666666667" y="440.470588235293">
1
</text>
</g>
<g class="edge">
<path d="M56.32,440.72156 C121.17333,440.72156,121.17333,446.24313,186.02667,446.24313 L186.02667,449.2549 C121.17333,449.2549,121.17333,443.73334,56.32,443.73334 z"/>
<text x="121.17333333333335" y="444.9882352941171">
1
</text>
</g>
<g class="edge">
<path d="M191.14667,446.24313 C256,446.24313,256,446.24313,320.85333,446.24313 L320.85333,449.2549 C256,449.2549,256,449.2549,191.14667,449.2549 z"/>
<text x="256" y="447.74901960784206">
1
</text>
</g>
<g class="edge">
<path d="M325.97333,446.24313 C390.82666,446.24313,390.82666,437.7098,455.68,437.7098 L455.68,440.72156 C390.82666,440.72156,390.82666,449.2549,325.97333,449.2549 z"/>
<text x="390.8266666666667" y="443.48235294117535">
1
</text>
</g>
<g class="edge">
<path d="M56.32,246.9647 C121.17333,246.9647,121.17333,449.2549,186.02667,449.2549 L186.02667,452.26666 C121.17333,452.26666,121.17333,249.97647,56.32,249.97647 z"/>
<text x="121.17333333333335" y="349.61568627450913">
1
</text>
</g>
<g class="edge">
<path d="M191.14667,449.2549 C256,449.2549,256,449.2549,320.85333,449.2549 L320.85333,452.26666 C256,452.26666,256,452.26666,191.14667,452.26666 z"/>
<text x="256" y="450.7607843137244">
1
</text>
</g>
<g class="edge">
<path d="M325.97333,449.2549 C390.82666,449.2549,390.82666,440.72156,455.68,440.72156 L455.68,443.73334 C390.82666,443.73334,390.82666,452.26666,325.97333,452.26666 z"/>
<text x="390.8266666666667" y="446.4941176470577">
1
</text>
</g>
<text class="node" x="53.760000000000005" y="150.58823529411762">
<tspan dy="-5.12" x="53.760000000000005">
(G0, D1)
</tspan>
<tspan dy="10.24" x="53.760000000000005">
66
</tspan>
</text>
<text class="node" x="53.760000000000005" y="327.278431372549">
<tspan dy="-5.12" x="53.760000000000005">
(G1, D1)
</tspan>
<tspan dy="10.24" x="53.760000000000005">
40
</tspan>
</text>
<text class="node" x="53.760000000000005" y="424.156862745098">
<tspan dy="-5.12" x="53.760000000000005">
(G2, D1)
</tspan>
<tspan dy="10.24" x="53.760000000000005">
13
</tspan>
</text>
<text class="node" x="53.760000000000005" y="460.79999999999995">
<tspan dy="-5.12" x="53.760000000000005">
(G2, D4)
</tspan>
<tspan dy="10.24" x="53.760000000000005">
0
</tspan>
</text>
<text class="node" x="188.5866666666667" y="91.356862745098">
<tspan dy="-5.12" x="188.5866666666667">
(G1, D2)
</tspan>
<tspan dy="10.24" x="188.5866666666667">
21
</tspan>
</text>
<text class="node" x="188.5866666666667" y="144.5647058823529">
<tspan dy="-5.12" x="188.5866666666667">
(G2, D2)
</tspan>
<tspan dy="10.24" x="188.5866666666667">
3
</tspan>
</text>
<text class="node" x="188.5866666666667" y="309.2078431372549">
<tspan dy="-5.12" x="188.5866666666667">
(G0, D2)
</tspan>
<tspan dy="10.24" x="188.5866666666667">
95
</tspan>
</text>
<text class="node" x="323.41333333333336" y="67.2627450980392">
<tspan dy="-5.12" x="323.41333333333336">
(G1, D3)
</tspan>
<tspan dy="10.24" x="323.41333333333336">
5
</tspan>
</text>
<text class="node" x="323.41333333333336" y="94.87058823529411">
<tspan dy="-5.12" x="323.41333333333336">
(G2, D3)
</tspan>
<tspan dy="10.24" x="323.41333333333336">
2
</tspan>
</text>
<text class="node" x="323.41333333333336" y="283.6078431372549">
<tspan dy="-5.12" x="323.41333333333336">
(G0, D3)
</tspan>
<tspan dy="10.24" x="323.41333333333336">
112
</tspan>
</text>
<text class="node" x="458.24000000000007" y="69.77254901960782">
<tspan dy="-5.12" x="458.24000000000007">
(G1, D4)
</tspan>
<tspan dy="10.24" x="458.24000000000007">
1
</tspan>
</text>
<text class="node" x="458.24000000000007" y="266.03921568627453">
<tspan dy="-5.12" x="458.24000000000007">
(G0, D4)
</tspan>
<tspan dy="10.24" x="458.24000000000007">
118
</tspan>
</text>
</svg>